<?xml version="1.0" standalone="yes"?>
<svg xmlns="http://www.w3.org/2000/svg" width="2289" height="2326">
<path style="fill:#ffffff; stroke:none;" d="M0 0L0 2326L2289 2326L2289 0L0 0z"/>
<path style="fill:#1793d1; stroke:none;" d="M1143 56C1123.42 113.862 1097.31 170.53 1074.01 227C1034.08 323.768 995.194 420.872 953.719 517C935.793 558.548 917.533 600.084 898.219 641C892.581 652.943 887.202 664.998 881.691 677C879.888 680.928 875.705 686.487 876.213 691C876.889 697.008 886.597 703.594 890.424 708C905.119 724.915 922.09 740.283 938 756.004C984.194 801.648 1032.75 844.493 1084 884.424C1105.15 900.902 1127.71 922.46 1152 934L1152 935C1127.32 926.598 1103.65 914.168 1080 903.309C1030.59 880.623 981.446 854.958 936 824.997C914.917 811.097 894.174 796.821 874 781.626C864.094 774.164 854.312 763.042 843 758C829.939 789.372 813.059 819.411 798.258 850C758.716 931.723 716.889 1012.34 675.258 1093C545.991 1343.45 410.02 1590.22 275.691 1838C221.796 1937.42 166.132 2035.88 111.694 2135C94.8158 2165.73 77.5727 2196.27 60.6944 2227C52.7154 2241.53 40.6775 2257.1 36 2273C45.8123 2269.9 55.0738 2262.94 64 2257.85L116 2228.28C167.807 2198.83 220.309 2170.58 273 2142.78C411.712 2069.59 555.04 2003 704 1953.33C771.572 1930.8 843.082 1907.16 914 1898C909.192 1860.77 900.668 1824.65 898.089 1787C891.123 1685.27 910.363 1571.27 961.427 1482C1008.39 1399.9 1094.42 1324.01 1195 1357.52C1212.02 1363.18 1228.32 1371.42 1243 1381.72C1267.13 1398.66 1287.51 1419.63 1305.35 1443C1368.8 1526.12 1398.96 1642.4 1399 1746C1399.01 1784.67 1396.79 1822.7 1391.27 1861C1389.92 1870.38 1388.13 1879.68 1386.39 1889C1385.84 1891.91 1384.01 1896.67 1386.61 1899.06C1391.52 1903.58 1405.54 1903.84 1412 1905.21C1433.43 1909.77 1454.76 1914.99 1476 1920.37C1545.37 1937.94 1613.18 1962.01 1680 1987.42C1813.89 2038.35 1943.16 2103.24 2069 2171.31C2109.54 2193.24 2149.93 2215.5 2190 2238.28C2209.9 2249.59 2230.51 2265.18 2252 2273C2246.93 2255.41 2234.01 2238.09 2225.31 2222L2171.31 2122L2097.31 1985C2086.99 1965.92 2078.23 1943.39 2065.21 1926.04C2057.61 1915.91 2043.88 1908.1 2034 1900.2C2013.27 1883.61 1992.73 1866.79 1972 1850.2C1908.45 1799.36 1842.46 1751.47 1772 1710.58C1746.63 1695.85 1718.29 1674.15 1690 1666L1690 1665C1762.88 1680.04 1836.56 1708.34 1904 1739.31C1922.29 1747.71 1940.3 1756.73 1958 1766.31C1967.43 1771.41 1976.76 1778.76 1987 1782C1982.82 1767.5 1972.48 1753.27 1965.31 1740C1950.2 1712.06 1935.42 1683.94 1920.31 1656C1875.59 1573.31 1831.65 1490.14 1787.78 1407C1646.06 1138.42 1504.05 869.072 1377.31 593C1320.53 469.319 1266.09 344.516 1213.42 219C1197.18 180.28 1180.88 141.573 1164.28 103C1158.36 89.2322 1153.61 66.5908 1143 56z"/>
<path style="fill:#ffffff; stroke:none;" d="M1152 935L1153 936L1152 935M1154 936L1155 937L1154 936M1688.67 1664.33L1689.33 1664.67L1688.67 1664.33z"/>
</svg>
