<?xml version="1.0" standalone="yes"?>
<svg xmlns="http://www.w3.org/2000/svg" width="1024" height="860">
<path style="fill:#4d517a; stroke:none;" d="M0 0L0 860L1024 860L1024 0L0 0z"/>
<path style="fill:#190a2e; stroke:none;" d="M489 14.4244C471.149 16.7752 453.799 19.5919 437 26.4521C401.867 40.7994 369.141 68.5107 338 89.9745C281.511 128.909 224.085 166.61 167 204.667C147.618 217.588 128.386 230.743 109 243.667C90.5975 255.935 72.0615 268.082 62.6651 289C53.3696 309.693 53.089 337.693 60.6983 359C63.2517 366.15 71.095 373.63 72.348 380.715C73.0878 384.897 66.0358 392.248 64.1096 396C59.3047 405.359 56.8063 415.533 56.0895 426C55.0677 440.921 55.796 456.993 61.4529 471C63.9995 477.305 71.2143 484.304 72.348 490.715C72.8745 493.692 69.5622 496.714 68.0895 499.001C64.3216 504.852 61.2492 511.343 59.2052 518C52.9544 538.359 53.9026 565.754 63.2593 585C76.7758 612.802 107.272 627.848 132 644.333C181.437 677.291 230.562 710.708 280 743.667C313.434 765.956 346.565 788.71 380 811C398.679 823.453 417.09 838.01 438 846.548C469.138 859.262 505.856 861.691 539 857.714C589.721 851.629 626.803 821.6 668 794.001C731.725 751.309 795.192 708.226 859 665.667C878.05 652.961 897.072 640.224 916 627.344C934.372 614.842 952.028 603.262 961.127 582C969.516 562.4 969.64 535.001 962.655 515C960.087 507.646 951.944 499.279 950.892 492C950.208 487.272 957.144 480.193 959.241 476C964.038 466.406 966.181 455.657 966.911 445C967.887 430.737 966.955 415.35 961.547 402C959.036 395.802 951.807 388.332 950.892 382C949.964 375.583 961.197 362.931 963.279 356C969.594 334.971 969.379 307.957 959.742 288C946.237 260.034 915.856 244.904 891 228.333C842.23 195.82 793.764 162.858 745 130.333C713.906 109.594 683.1 88.4001 652 67.6667C631.892 54.2613 612.025 38.3937 590 28.3087C560.022 14.5822 521.665 10.1227 489 14.4244z"/>
<path style="fill:#7440c1; stroke:none;" d="M110 371C100.262 379.3 90.7428 385.951 83.794 397.09C69.3813 420.191 75.6848 448.657 93.1844 467.986C110.257 486.843 137.901 500.267 159 514.333C202.387 543.258 245.614 572.409 289 601.333C311.354 616.236 333.46 631.607 356 646.214C363.278 650.93 373.082 661.028 382 661L381 663L390 665L390 664L384 663L384 662L395 665L395 663L410 667L410 666L408 665L414 664L412 663L412 662L418 662L416 665L416 666L434 666L434 665L432 665L432 664L439 666L439 664L440 666L442 666L443 664L443 666L454 665L454 664L448 663L448 662L459 665L459 663L474 667L474 666L472 665L478 664L476 663L476 662L482 662L480 665L480 666L498 666L498 665L496 665L496 664L503 666L503 664L504 666L506 666L507 664L507 666L518 665L518 664L512 663L512 662L523 665L523 663L538 667L538 666L536 665L542 664L540 663L540 662L546 662L544 665L544 666L562 666L562 665L560 665L560 664L567 666L567 664L568 666L570 666L571 664L571 666L582 665L582 664L576 663L576 662L587 665L587 663L602 667L602 666L600 665L606 664L604 663L604 662L610 662L608 665L608 666L626 666L626 665L624 665L624 664L631 666L631 664L632 666L634 666L635 664L635 666C701.428 625.427 765.212 580.192 830 537C851.054 522.964 871.948 508.701 893 494.667C905.226 486.516 919.721 478.921 929.711 467.961C949.864 445.847 952.819 415.831 935.188 391.285C929.086 382.79 920.788 377.638 913 371C946.301 354.412 958.022 309.189 934.536 280.001C919.702 261.564 896.47 249.313 877 236.333C842.28 213.186 807.701 189.843 773 166.667C730.592 138.343 688.29 109.836 646 81.3303C622.709 65.6306 599.706 46.9003 574 35.3117C536.393 18.358 486.578 18.1025 449 35.3087C430.071 43.9757 413.266 56.8226 396 68.3333C365.899 88.4005 336.054 108.865 306 128.999C262.962 157.832 220.1 186.934 177 215.667C152.073 232.285 125.448 247.789 102 266.45C66.9262 294.362 66.9057 349.534 110 371z"/>
<path style="fill:#b99fe0; stroke:none;" d="M468 190L468 191L475 191L468 190z"/>
<path style="fill:#fffeff; stroke:none;" d="M309 279L309 280C331.81 297.533 357.055 312.703 381 328.667C419.103 354.069 456.899 379.933 495 405.333C510.333 415.556 525.69 425.744 541 436.001C545.586 439.073 553.09 446.963 559 446.265C564.375 445.631 570.692 439.622 575 436.576C586.156 428.686 597.631 421.246 609 413.667C637.919 394.387 676.935 375.569 694.1 344C721.153 294.244 652.709 261.776 613 260.039C590.64 259.062 572.686 268.041 552 274C556.005 267.918 560.648 262.282 562.319 255C572.508 210.603 514.585 189.583 480 190.018C438.252 190.545 406.323 213.451 373 235.667C351.704 249.864 329.286 263.407 309 279z"/>
<path style="fill:#b99fe0; stroke:none;" d="M486 190L486 191L494 191L486 190M461 191L461 192L464 192L461 191M497 191L497 192L501 192L497 191M455 192L455 193L458 193L455 192M503 192L503 193L506 193L503 192M451.667 193.333L452.333 193.667L451.667 193.333M508.667 193.333L509.333 193.667L508.667 193.333M447.667 194.333L448.333 194.667L447.667 194.333M512 194L513 195L512 194M444 195L445 196L444 195M515.667 195.333L516.333 195.667L515.667 195.333M440.667 196.333L441.333 196.667L440.667 196.333M518 196L519 197L518 196M438 197L439 198L438 197M521 197L522 198L521 197M435 198L436 199L435 198M523.667 198.333L524.333 198.667L523.667 198.333M432.667 199.333L433.333 199.667L432.667 199.333M526 199L527 200L526 199M430 200L431 201L430 200M528 200L529 201L528 200M428 201L429 202L428 201M530 201L531 202L530 201M425.667 202.333L426.333 202.667L425.667 202.333M532 202L533 203L532 202M423 203L424 204L423 203M421 204L422 205L421 204M535 204L536 205L535 204M419 205L420 206L419 205M537 205L538 206L537 205M417 206L418 207L417 206M416 207L417 208L416 207M540 207L541 208L540 207M414 208L415 209L414 208M412 209L413 210L412 209M543 209L544 210L543 209M544 210L545 211L544 210M409 211L410 212L409 211M545 211L546 212L545 211M407 212L408 213L407 212M406 213L407 214L406 213M404 214L405 215L404 214M403 215L404 216L403 215M401 216L402 217L401 216M400 217L401 218L400 217M398 218L399 219L398 218M397 219L398 220L397 219M553 219L554 220L553 219M395 220L396 221L395 220M466 220L466 221L470 221L466 220z"/>
<path style="fill:#7440c1; stroke:none;" d="M368 276L368 278C386.978 290.803 405.955 303.636 425 316.333C430.449 319.966 440.307 329.646 447 329.735C454.478 329.834 466.852 317.765 473 313.667C492.962 300.359 545.769 272.818 524.2 242C519.908 235.868 513.476 231.43 507 227.865C465.634 205.094 426.133 237.245 393 259.333C384.667 264.889 376.302 270.399 368 276z"/>
<path style="fill:#b99fe0; stroke:none;" d="M482 220L482 221L486 221L482 220M554 220L555 221L554 220M394 221L395 222L394 221M460 221L460 222L463 222L460 221M489.667 221.333L490.333 221.667L489.667 221.333M555 221L556 222L555 221M392 222L393 223L392 222M457.667 222.333L458.333 222.667L457.667 222.333M493.667 222.333L494.333 222.667L493.667 222.333M391 223L392 224L391 223M453.667 223.333L454.333 223.667L453.667 223.333M496.667 223.333L497.333 223.667L496.667 223.333M556 223L557 224L556 223M389 224L390 225L389 224M450.667 224.333L451.333 224.667L450.667 224.333M499 224L500 225L499 224M557 224L558 225L557 224M388 225L389 226L388 225M448 225L449 226L448 225M502 225L503 226L502 225M386 226L387 227L386 226M445 226L446 227L445 226M504 226L505 227L504 226M558 226L559 227L558 226M385 227L386 228L385 227M443 227L444 228L443 227M506 227L507 228L506 227M383 228L384 229L383 228M441 228L442 229L441 228M508 228L509 229L508 228M559 228L560 229L559 228M382 229L383 230L382 229M439 229L440 230L439 229M509 229L510 230L509 229M380 230L381 231L380 230M437 230L438 231L437 230M511 230L512 231L511 230M560 230L561 231L560 230M379 231L380 232L379 231M435 231L436 232L435 231M433 232L434 233L433 232M514 232L515 233L514 232M376 233L377 234L376 233M515 233L516 234L515 233M561 233L562 234L561 233M430 234L431 235L430 234M373 235L374 236L373 235M428 235L429 236L428 235M427 236L428 237L427 236M562.333 236.667L562.667 237.333L562.333 236.667M370 237L371 238L370 237M425 237L426 238L425 237M520 237L521 238L520 237M424 238L425 239L424 238M521 238L522 239L521 238M367 239L368 240L367 239M422 239L423 240L422 239M421 240L422 241L421 240M563 240L563 252L564 252L563 240M364 241L365 242L364 241M419 241L420 242L419 241M418 242L419 243L418 242M524 242L525 243L524 242M361 243L362 244L361 243M416 243L417 244L416 243M415 244L416 245L415 244M358 245L359 246L358 245M413 245L414 246L413 245M526 245L527 246L526 245M412 246L413 247L412 246M355 247L356 248L355 247M410 247L411 248L410 247M527.333 247.667L527.667 248.333L527.333 247.667M409 248L410 249L409 248M352 249L353 250L352 249M407 249L408 250L407 249M351 250L352 251L351 250M406 250L407 251L406 250M528.333 250.667L528.667 251.333L528.333 250.667M349 251L350 252L349 251M404 251L405 252L404 251M348 252L349 253L348 252M403 252L404 253L403 252M346 253L347 254L346 253M401 253L402 254L401 253M345 254L346 255L345 254M400 254L401 255L400 254M562.333 254.667L562.667 255.333L562.333 254.667M343 255L344 256L343 255M398 255L399 256L398 255M342 256L343 257L342 256M397 256L398 257L397 256M340 257L341 258L340 257M339 258L340 259L339 258M394 258L395 259L394 258M561 258L562 259L561 258M337 259L338 260L337 259M336 260L337 261L336 260M391 260L392 261L391 260M560 260L561 261L560 260M597 260L597 261L603 261L597 260M617 260L617 261L623 261L617 260M334 261L335 262L334 261M528.333 261.667L528.667 262.333L528.333 261.667M589 261L589 262L593 262L589 261M627 261L627 262L630 262L627 261M333 262L334 263L333 262M388 262L389 263L388 262M559 262L560 263L559 262M584 262L584 263L587 263L584 262M632 262L632 263L635 263L632 262M331 263L332 264L331 263M580.667 263.333L581.333 263.667L580.667 263.333M637.667 263.333L638.333 263.667L637.667 263.333M330 264L331 265L330 264M385 264L386 265L385 264M558 264L559 265L558 264M576.667 264.333L577.333 264.667L576.667 264.333M641.667 264.333L642.333 264.667L641.667 264.333M328 265L329 266L328 265M527 265L528 266L527 265M573.667 265.333L574.333 265.667L573.667 265.333M644.667 265.333L645.333 265.667L644.667 265.333M327 266L328 267L327 266M382 266L383 267L382 266M570.667 266.333L571.333 266.667L570.667 266.333M647.667 266.333L648.333 266.667L647.667 266.333M325 267L326 268L325 267M526 267L527 268L526 267M556 267L557 268L556 267M567.667 267.333L568.333 267.667L567.667 267.333M650 267L651 268L650 267M324 268L325 269L324 268M379 268L380 269L379 268M565 268L566 269L565 268M652.667 268.333L653.333 268.667L652.667 268.333M525 269L526 270L525 269M562 269L563 270L562 269M655 269L656 270L655 269M321 270L322 271L321 270M376 270L377 271L376 270M560 270L561 271L560 270M657 270L658 271L657 270M524 271L525 272L524 271M558 271L559 272L558 271M659 271L660 272L659 271M318 272L319 273L318 272M373 272L374 273L373 272M552.333 272.667L552.667 273.333L552.333 272.667M556 272L557 273L556 272M661 272L662 273L661 272M554 273L555 274L554 273M663 273L664 274L663 273M315 274L316 275L315 274M370 274L371 275L370 274M522 274L523 275L522 274M665 274L666 275L665 274M521 275L522 276L521 275M666 275L667 276L666 275M312 276L313 277L312 276M367.333 276.667L367.667 277.333L367.333 276.667M668 276L669 277L668 276M309 278L310 279L309 278M519 278L520 279L519 278M671 278L672 279L671 278M308 279L309 280L308 279M370 279L371 280L370 279M518 279L519 280L518 279M309 280L310 281L309 280M517 280L518 281L517 280M674 280L675 281L674 280M373 281L374 282L373 281M516 281L517 282L516 281M675 281L676 282L675 281M312 282L313 283L312 282M515 282L516 283L515 282M376 283L377 284L376 283M514 283L515 284L514 283M678 283L679 284L678 283M315 284L316 285L315 284M513 284L514 285L513 284M679 284L680 285L679 284M379 285L380 286L379 285M512 285L513 286L512 285M680 285L681 286L680 285M318 286L319 287L318 286M511 286L512 287L511 286M588 286L588 287L595 287L588 286z"/>
<path style="fill:#7440c1; stroke:none;" d="M475 348L475 350C495.971 364.147 516.955 378.303 538 392.333C543.854 396.236 554.819 406.98 562 406.98C565.837 406.98 569.976 403.025 573 400.999C581.372 395.391 589.613 389.591 598 384C616.994 371.337 648.874 356.39 654.471 332C657.868 317.197 647.646 305.43 636 297.865C610.899 281.56 581.107 285.233 555 296.861C526.031 309.764 502.552 332.661 475 348z"/>
<path style="fill:#b99fe0; stroke:none;" d="M597 286L597 287L606 287L597 286M681 286L682 287L681 286M382 287L383 288L382 287M582 287L582 288L585 288L582 287M609 287L609 288L612 288L609 287M682 287L683 288L682 287M321 288L322 289L321 288M577 288L577 289L580 289L577 288M614.667 288.333L615.333 288.667L614.667 288.333M385 289L386 290L385 289M507 289L508 290L507 289M574 289L575 290L574 289M618 289L619 290L618 289M324 290L325 291L324 290M386 290L387 291L386 290M506 290L507 291L506 290M570.667 290.333L571.333 290.667L570.667 290.333M621 290L622 291L621 290M388 291L389 292L388 291M505 291L506 292L505 291M567.667 291.333L568.333 291.667L567.667 291.333M623.667 291.333L624.333 291.667L623.667 291.333M686 291L687 292L686 291M327 292L328 293L327 292M389 292L390 293L389 292M565 292L566 293L565 292M626 292L627 293L626 292M687 292L688 293L687 292M328 293L329 294L328 293M391 293L392 294L391 293M502 293L503 294L502 293M562 293L563 294L562 293M628 293L629 294L628 293M688 293L689 294L688 293M330 294L331 295L330 294M392 294L393 295L392 294M501 294L502 295L501 294M560 294L561 295L560 294M630 294L631 295L630 294M689 294L690 295L689 294M331 295L332 296L331 295M394 295L395 296L394 295M499 295L500 296L499 295M557.667 295.333L558.333 295.667L557.667 295.333M632 295L633 296L632 295M333 296L334 297L333 296M395 296L396 297L395 296M498 296L499 297L498 296M555 296L556 297L555 296M633 296L634 297L633 296M334 297L335 298L334 297M397 297L398 298L397 297M553 297L554 298L553 297M635 297L636 298L635 297M691 297L692 298L691 297M336 298L337 299L336 298M398 298L399 299L398 298M495 298L496 299L495 298M551 298L552 299L551 298M692 298L693 299L692 298M337 299L338 300L337 299M400 299L401 300L400 299M549 299L550 300L549 299M638 299L639 300L638 299M339 300L340 301L339 300M401 300L402 301L401 300M492 300L493 301L492 300M547 300L548 301L547 300M639 300L640 301L639 300M693 300L694 301L693 300M340 301L341 302L340 301M403 301L404 302L403 301M342 302L343 303L342 302M404 302L405 303L404 302M489 302L490 303L489 302M544 302L545 303L544 302M642 302L643 303L642 302M343 303L344 304L343 303M406 303L407 304L406 303M542 303L543 304L542 303M643 303L644 304L643 303M695 303L696 304L695 303M345 304L346 305L345 304M407 304L408 305L407 304M486 304L487 305L486 304M540 304L541 305L540 304M644 304L645 305L644 304M346 305L347 306L346 305M409 305L410 306L409 305M539 305L540 306L539 305M645 305L646 306L645 305M696.333 305.667L696.667 306.333L696.333 305.667M348 306L349 307L348 306M410 306L411 307L410 306M483 306L484 307L483 306M537 306L538 307L537 306M646 306L647 307L646 306M349 307L350 308L349 307M412 307L413 308L412 307M647 307L648 308L647 307M351 308L352 309L351 308M413 308L414 309L413 308M480 308L481 309L480 308M534 308L535 309L534 308M648 308L649 309L648 308M697 308L698 309L697 308M352 309L353 310L352 309M649 309L650 310L649 309M354 310L355 311L354 310M416 310L417 311L416 310M477 310L478 311L477 310M531 310L532 311L531 310M355 311L356 312L355 311M698 311L699 312L698 311M419 312L420 313L419 312M474 312L475 313L474 312M528 312L529 313L528 312M651 312L652 313L651 312M358 313L359 314L358 313M473 313L474 314L473 313M422 314L423 315L422 314M471 314L472 315L471 314M525 314L526 315L525 314M652 314L653 315L652 314M699 314L699 317L700 317L699 314M361 315L362 316L361 315M470 315L471 316L470 315M425 316L426 317L425 316M468 316L469 317L468 316M522 316L523 317L522 316M653 316L654 317L653 316M364 317L365 318L364 317M467 317L468 318L467 317M428 318L429 319L428 318M465 318L466 319L465 318M519 318L520 319L519 318M654.333 318.667L654.667 319.333L654.333 318.667M367 319L368 320L367 319M464 319L465 320L464 319M431 320L432 321L431 320M462 320L463 321L462 320M516 320L517 321L516 320M370 321L371 322L370 321M461 321L462 322L461 321M434 322L435 323L434 322M459 322L460 323L459 322M513 322L514 323L513 322M655 322L655 330L656 330L655 322M373 323L374 324L373 323M458 323L459 324L458 323M437 324L438 325L437 324M456 324L457 325L456 324M510 324L511 325L510 324M376 325L377 326L376 325M455 325L456 326L455 325M440 326L441 327L440 326M453 326L454 327L453 326M507 326L508 327L507 326M379 327L380 328L379 327M452 327L453 328L452 327M699 327L699 330L700 330L699 327M443 328L444 329L443 328M450 328L451 329L450 328M504 328L505 329L504 328M382 329L383 330L382 329M449 329L450 330L449 329M503 329L504 330L503 329M446 330L447 331L446 330M501 330L502 331L501 330M385 331L386 332L385 331M500 331L501 332L500 331M498 332L499 333L498 332M654.333 332.667L654.667 333.333L654.333 332.667M698.333 332.667L698.667 333.333L698.333 332.667M388 333L389 334L388 333M497 333L498 334L497 333M495 334L496 335L495 334M391 335L392 336L391 335M494 335L495 336L494 335M653 335L654 336L653 335M492 336L493 337L492 336M697 336L698 337L697 336M394 337L395 338L394 337M491 337L492 338L491 337M652 337L653 338L652 337M395 338L396 339L395 338M489 338L490 339L489 338M696 338L697 339L696 338M397 339L398 340L397 339M488 339L489 340L488 339M651 339L652 340L651 339M398 340L399 341L398 340M486 340L487 341L486 340M400 341L401 342L400 341M485 341L486 342L485 341M650 341L651 342L650 341M695 341L696 342L695 341M401 342L402 343L401 342M483 342L484 343L483 342M403 343L404 344L403 343M482 343L483 344L482 343M694 343L695 344L694 343M404 344L405 345L404 344M480 344L481 345L480 344M648 344L649 345L648 344M406 345L407 346L406 345M479 345L480 346L479 345M647 345L648 346L647 345M407 346L408 347L407 346M692 346L693 347L692 346M409 347L410 348L409 347M476 347L477 348L476 347M410 348L411 349L410 348M645 348L646 349L645 348M691 348L692 349L691 348M412 349L413 350L412 349M474 349L475 350L474 349M644 349L645 350L644 349M690 349L691 350L690 349M413 350L414 351L413 350M643 350L644 351L643 350M415 351L416 352L415 351M477 351L478 352L477 351M642 351L643 352L642 351M689 351L690 352L689 351M416 352L417 353L416 352M641 352L642 353L641 352M688 352L689 353L688 352M418 353L419 354L418 353M480 353L481 354L480 353M640 353L641 354L640 353M419 354L420 355L419 354M639 354L640 355L639 354M483 355L484 356L483 355M686 355L687 356L686 355M422 356L423 357L422 356M685 356L686 357L685 356M486 357L487 358L486 357M684 357L685 358L684 357M425 358L426 359L425 358M634 358L635 359L634 358M683 358L684 359L683 358M489 359L490 360L489 359M633 359L634 360L633 359M428 360L429 361L428 360M492 361L493 362L492 361M431 362L432 363L431 362M629 362L630 363L629 362M495 363L496 364L495 363M434 364L435 365L434 364M626 364L627 365L626 364M498 365L499 366L498 365M625 365L626 366L625 365M437 366L438 367L437 366M501 367L502 368L501 367M622 367L623 368L622 367M674 367L675 368L674 367M440 368L441 369L440 368M673 368L674 369L673 368M504 369L505 370L504 369M619 369L620 370L619 369M672 369L673 370L672 369M443 370L444 371L443 370M671 370L672 371L671 370M507 371L508 372L507 371M616 371L617 372L616 371z"/>
<path style="fill:#190a2e; stroke:none;" d="M110 372L113 374L113 373L110 372z"/>
<path style="fill:#b99fe0; stroke:none;" d="M446 372L447 373L446 372M508 372L509 373L508 372M510 373L511 374L510 373M613 373L614 374L613 373M667 373L668 374L667 373z"/>
<path style="fill:#190a2e; stroke:none;" d="M910 373C879.937 396.108 846.558 415.961 815 437C761.564 472.624 708.434 508.711 655 544.333C627.99 562.34 600.94 584.768 571 597.573C541.961 609.991 508.709 611.729 478 605.551C435.728 597.046 400.091 565.727 365 542.333C308.564 504.709 252.437 466.624 196 429C169.493 411.329 142.86 388.49 114 375C124.219 391.89 150.859 397.267 163 413L166 415C178.368 418.03 192.969 433.241 203.17 441.025C222.106 455.475 241.752 469.17 261.17 482.95C271.152 490.034 285.547 497.343 293 507L301 510L320.907 526.29L367 561L369 560C372.941 566.474 387.543 577.98 395 579L400 586C408.192 589.65 418.243 597.103 424 604L427 603L431 609C433.649 608.47 434.607 608.572 434 611L442 613L446 618C452.401 618.108 465.101 622.932 470 627L480 627L480 628L476 628L476 629L488 629C490.459 631.807 494.567 630.648 498.086 631.144C507.163 632.424 523.249 634.512 531 629L531 631L532 629L547 629L547 628L543 628L543 627L560 625L577 618L581 613C587.471 612.132 595.781 606.659 599 601L602 602L615 589C620.739 588.478 628.042 581.862 631 577L633 578L654 560L671.004 549.171L709 521.014L853.961 416.475L895 386.471L910 373z"/>
<path style="fill:#b99fe0; stroke:none;" d="M449 374L450 375L449 374M511 374L512 375L511 374M666 374L667 375L666 374M513 375L514 376L513 375M610 375L611 376L610 375M452 376L453 377L452 376M514 376L515 377L514 376M663 376L664 377L663 376M516 377L517 378L516 377M607 377L608 378L607 377M662 377L663 378L662 377M455 378L456 379L455 378M517 378L518 379L517 378M519 379L520 380L519 379M604 379L605 380L604 379M659 379L660 380L659 379M458 380L459 381L458 380M520 380L521 381L520 380M522 381L523 382L522 381M601 381L602 382L601 381M656 381L657 382L656 381M461 382L462 383L461 382M523 382L524 383L523 382M655 382L656 383L655 382M462 383L463 384L462 383M525 383L526 384L525 383M598 383L599 384L598 383M653 383L654 384L653 383M464 384L465 385L464 384M526 384L527 385L526 384M597 384L598 385L597 384M652 384L653 385L652 384M465 385L466 386L465 385M595 385L596 386L595 385M650 385L651 386L650 385M467 386L468 387L467 386M529 386L530 387L529 386M594 386L595 387L594 386M649 386L650 387L649 386M468 387L469 388L468 387M592 387L593 388L592 387M647 387L648 388L647 387M470 388L471 389L470 388M532 388L533 389L532 388M591 388L592 389L591 388M646 388L647 389L646 388M471 389L472 390L471 389M589 389L590 390L589 389M644 389L645 390L644 389M473 390L474 391L473 390M535 390L536 391L535 390M588 390L589 391L588 390M643 390L644 391L643 390M474 391L475 392L474 391M586 391L587 392L586 391M641 391L642 392L641 391M476 392L477 393L476 392M538 392L539 393L538 392M585 392L586 393L585 392M640 392L641 393L640 392M477 393L478 394L477 393M583 393L584 394L583 393M479 394L480 395L479 394M541 394L542 395L541 394M582 394L583 395L582 394M637 394L638 395L637 394M480 395L481 396L480 395M580 395L581 396L580 395M482 396L483 397L482 396M544 396L545 397L544 396M579 396L580 397L579 396M634 396L635 397L634 396M483 397L484 398L483 397M547 398L548 399L547 398M576 398L577 399L576 398M631 398L632 399L631 398M486 399L487 400L486 399M550 400L551 401L550 400M573 400L574 401L573 400M628 400L629 401L628 400M489 401L490 402L489 401M553 402L554 403L553 402M570 402L571 403L570 402M625 402L626 403L625 402M492 403L493 404L492 403M556 404L557 405L556 404M567 404L568 405L567 404M622 404L623 405L622 404M495 405L496 406L495 405M559 406L560 407L559 406M564 406L565 407L564 406M619 406L620 407L619 406M498 407L499 408L498 407M616 408L617 409L616 408M501 409L502 410L501 409M613 410L614 411L613 410M504 411L505 412L504 411M610 412L611 413L610 412M507 413L508 414L507 413M607 414L608 415L607 414M510 415L511 416L510 415M604 416L605 417L604 416M513 417L514 418L513 417M601 418L602 419L601 418M516 419L517 420L516 419M598 420L599 421L598 420M519 421L520 422L519 421M595 422L596 423L595 422M522 423L523 424L522 423M594 423L595 424L594 423M592 424L593 425L592 424M525 425L526 426L525 425M591 425L592 426L591 425M589 426L590 427L589 426M528 427L529 428L528 427M588 427L589 428L588 427M529 428L530 429L529 428M586 428L587 429L586 428M531 429L532 430L531 429M585 429L586 430L585 429M532 430L533 431L532 430M583 430L584 431L583 430M534 431L535 432L534 431M582 431L583 432L582 431M535 432L536 433L535 432M580 432L581 433L580 432M537 433L538 434L537 433M579 433L580 434L579 433M538 434L539 435L538 434M577 434L578 435L577 434M540 435L541 436L540 435M576 435L577 436L576 435M541 436L542 437L541 436M543 437L544 438L543 437M573 437L574 438L573 437M544 438L545 439L544 438M546 439L547 440L546 439M570 439L571 440L570 439M547 440L548 441L547 440M567 441L568 442L567 441M550 442L551 443L550 442M564 443L565 444L564 443M553 444L554 445L553 444M561 445L562 446L561 445M556 446L557 447L556 446M558 447L559 448L558 447z"/>
<path style="fill:#7440c1; stroke:none;" d="M90 498L91 499L90 498M932 498L933 499L932 498M89 500L90 501L89 500M935 502L936 503L935 502M86 504L87 505L86 504M83 508L84 509L83 508M939.333 508.667L939.667 509.333L939.333 508.667M942 514L943 515L942 514M80 515L79 517L80 515M78 519L79 520L78 519M944 519L945 520L944 519M77 522L78 523L77 522M76 527L77 528L76 527M946 527L947 528L946 527M76 545L77 546L76 545M946 545L947 546L946 545M619 586L620 587L619 586M424 602L425 603L424 602M593 605L594 606L593 605M537 628L538 629L537 628M539 628L540 629L539 628M490 629L491 630L490 629M492.667 629.333L493.333 629.667L492.667 629.333M499 630L500 631L499 630z"/>
<path style="fill:#190a2e; stroke:none;" d="M386 660L387 661L386 660M388.667 660.333L389.333 660.667L388.667 660.333M391 660L392 661L391 660M396 662L396 663L412 664L412 663L400 663L400 662L406 661L396 662M407 660L408 661L407 660M418 660L419 661L418 660M420.667 660.333L421.333 660.667L420.667 660.333M423 660L424 661L423 660M430 660L424 662L424 663L431 665L434 660L431 662L430 660M435.333 660.667L435.667 661.333L435.333 660.667M450 660L451 661L450 660M452.667 660.333L453.333 660.667L452.667 660.333M455 660L456 661L455 660M460 662L460 663L476 664L476 663L464 663L464 662L470 661L460 662M471 660L472 661L471 660M482 660L483 661L482 660M484.667 660.333L485.333 660.667L484.667 660.333M487 660L488 661L487 660M494 660L488 662L488 663L495 665L498 660L495 662L494 660M499.333 660.667L499.667 661.333L499.333 660.667M514 660L515 661L514 660M516.667 660.333L517.333 660.667L516.667 660.333M519 660L520 661L519 660M524 662L524 663L540 664L540 663L528 663L528 662L534 661L524 662M535 660L536 661L535 660M546 660L547 661L546 660M548.667 660.333L549.333 660.667L548.667 660.333M551 660L552 661L551 660M558 660L552 662L552 663L559 665L562 660L559 662L558 660M563.333 660.667L563.667 661.333L563.333 660.667M578 660L579 661L578 660M580.667 660.333L581.333 660.667L580.667 660.333M583 660L584 661L583 660M588 662L588 663L604 664L604 663L592 663L592 662L598 661L588 662M599 660L600 661L599 660M610 660L611 661L610 660M612.667 660.333L613.333 660.667L612.667 660.333M615 660L616 661L615 660M622 660L616 662L616 663L623 665L626 660L623 662L622 660M627.333 660.667L627.667 661.333L627.333 660.667M642 660L643 661L642 660M383 661L384 662L383 661M440 664L443 662L443 664L444 662L448 662C444.922 660.624 441.714 661.028 440 664M504 664L507 662L507 664L508 662L512 662C508.922 660.624 505.714 661.028 504 664M568 664L571 662L571 664L572 662L576 662C572.922 660.624 569.714 661.028 568 664M632 664L635 662L635 664L636 662L640 662C636.922 660.624 633.714 661.028 632 664M394 662L395 663L394 662z"/>
<path style="fill:#7440c1; stroke:none;" d="M398 662L399 663L398 662z"/>
<path style="fill:#190a2e; stroke:none;" d="M419 662L419 665L420 665L419 662M422 662L423 663L422 662z"/>
<path style="fill:#7440c1; stroke:none;" d="M430.333 662.667L430.667 663.333L430.333 662.667z"/>
<path style="fill:#190a2e; stroke:none;" d="M438.333 662.667L438.667 663.333L438.333 662.667M458 662L459 663L458 662z"/>
<path style="fill:#7440c1; stroke:none;" d="M462 662L463 663L462 662z"/>
<path style="fill:#190a2e; stroke:none;" d="M483 662L483 665L484 665L483 662M486 662L487 663L486 662z"/>
<path style="fill:#7440c1; stroke:none;" d="M494.333 662.667L494.667 663.333L494.333 662.667z"/>
<path style="fill:#190a2e; stroke:none;" d="M502.333 662.667L502.667 663.333L502.333 662.667M522 662L523 663L522 662z"/>
<path style="fill:#7440c1; stroke:none;" d="M526 662L527 663L526 662z"/>
<path style="fill:#190a2e; stroke:none;" d="M547 662L547 665L548 665L547 662M550 662L551 663L550 662z"/>
<path style="fill:#7440c1; stroke:none;" d="M558.333 662.667L558.667 663.333L558.333 662.667z"/>
<path style="fill:#190a2e; stroke:none;" d="M566.333 662.667L566.667 663.333L566.333 662.667M586 662L587 663L586 662z"/>
<path style="fill:#7440c1; stroke:none;" d="M590 662L591 663L590 662z"/>
<path style="fill:#190a2e; stroke:none;" d="M611 662L611 665L612 665L611 662M614 662L615 663L614 662z"/>
<path style="fill:#7440c1; stroke:none;" d="M622.333 662.667L622.667 663.333L622.333 662.667z"/>
<path style="fill:#190a2e; stroke:none;" d="M630.333 662.667L630.667 663.333L630.333 662.667z"/>
<path style="fill:#7440c1; stroke:none;" d="M415 663L416 664L415 663M479 663L480 664L479 663M543 663L544 664L543 663M607 663L608 664L607 663M391 664L392 665L391 664M406 664L407 665L406 664M455 664L456 665L455 664M470 664L471 665L470 664M519 664L520 665L519 664M534 664L535 665L534 664M583 664L584 665L583 664M598 664L599 665L598 664M414 665L415 666L414 665M435 665L436 666L435 665M478 665L479 666L478 665M499 665L500 666L499 665M542 665L543 666L542 665M563 665L564 666L563 665M606 665L607 666L606 665M627 665L628 666L627 665M387 666L388 667L387 666M394 666L395 667L394 666M396.667 666.333L397.333 666.667L396.667 666.333M399 666L400 667L399 666M411 666L412 667L411 666M422 666L423 667L422 666M424.667 666.333L425.333 666.667L424.667 666.333M427 666L428 667L427 666M446 666L447 667L446 666M448.667 666.333L449.333 666.667L448.667 666.333M451 666L452 667L451 666M458 666L459 667L458 666M460.667 666.333L461.333 666.667L460.667 666.333M463 666L464 667L463 666M475 666L476 667L475 666M486 666L487 667L486 666M488.667 666.333L489.333 666.667L488.667 666.333M491 666L492 667L491 666M510 666L511 667L510 666M512.667 666.333L513.333 666.667L512.667 666.333M515 666L516 667L515 666M522 666L523 667L522 666M524.667 666.333L525.333 666.667L524.667 666.333M527 666L528 667L527 666M539 666L540 667L539 666M550 666L551 667L550 666M552.667 666.333L553.333 666.667L552.667 666.333M555 666L556 667L555 666M574 666L575 667L574 666M576.667 666.333L577.333 666.667L576.667 666.333M579 666L580 667L579 666M586 666L587 667L586 666M588.667 666.333L589.333 666.667L588.667 666.333M591 666L592 667L591 666M603 666L604 667L603 666M614 666L615 667L614 666M616.667 666.333L617.333 666.667L616.667 666.333M619 666L620 667L619 666z"/>
</svg>
