<?xml version="1.0" standalone="yes"?>
<svg xmlns="http://www.w3.org/2000/svg" width="500" height="500">
<path style="fill:#010101; stroke:none;" d="M0 0L0 500L255 500L255 499C228.717 498.782 201.113 486.441 179 473.2C119.031 437.293 72.4894 371.326 57.4244 303C52.4607 280.488 54 256.901 54 234C54 206.613 52.0787 178.925 62.4491 153C68.6294 137.55 77.2758 125.103 85.7963 111C99.7989 87.8233 115.341 62.7765 137 45.8125C141.624 42.1912 147.048 41.6021 152 38.6512C167.351 29.5038 182.193 19.8961 199 13.4606C219.334 5.67462 241.778 8.91165 261 1L237 0L184 0L0 0z"/>
<path style="fill:#d37e92; stroke:none;" d="M261 0L262 1L261 0z"/>
<path style="fill:#bd667b; stroke:none;" d="M262.667 0.333344L263.333 0.666656L262.667 0.333344z"/>
<path style="fill:#c50236; stroke:none;" d="M277 496C265.498 493.363 252.937 491.442 242 486.985C231.173 482.573 222.855 475.069 213 469.068C181.17 449.686 151.062 423.201 132.666 390C127.76 381.146 120.917 369.883 118.615 360.004C117.376 354.689 121.907 351.781 119.175 346C112.821 332.555 98.32 325.488 92.6157 312C73.469 266.726 79.0106 205.687 98.6883 162C101.287 156.23 101.812 149.455 104.991 144C115.068 126.703 136.221 109.959 153 99.3843C156.645 97.087 161.524 96.9169 164.853 94.4005C169.542 90.8555 170.737 84.3343 176 80.6489C183.06 75.7058 191.454 77.115 199 73.8256C206.588 70.518 211.711 63.8654 219 60.2639C225.319 57.142 234.055 56.2179 241 55.2824C260.981 52.5907 282.147 51.2252 302 55.6651C342.36 64.6912 376.021 98.0273 392.688 135C399.578 150.283 399.967 165.614 401.09 182C402.162 197.667 404.216 215.575 400.239 231C398.459 237.903 394.108 242.94 390.677 249C387.749 254.17 386.941 260.086 383.556 265C374.576 278.037 362.891 282.431 350 289.876C337.592 297.041 326.637 303.809 312 305.711C249.212 313.87 193.758 234.99 232.595 181C242.513 167.211 257.156 158.261 273 152.699C298.564 143.724 313.979 160.532 337 166C333.308 158.083 325.194 153.165 318 148.684C289.607 131.001 251.952 134.47 229.286 160.004C211.3 180.266 199.512 206.535 202.17 234C203.217 244.822 204.679 256.383 207.015 267C207.776 270.455 211.505 276.287 210.363 279.743C209.013 283.826 194.266 268.341 197.819 282.001C201.265 295.245 211.367 296.147 220.985 301.434C225.507 303.919 228.947 308.594 233.001 311.789C249.492 324.782 272.25 332.687 293 335.05C301.235 335.988 309.708 336.814 317 332L282 327L282 325C305.615 320.616 329.152 324.787 352 314.827C361.758 310.574 370.832 305.415 379 298.562C385.237 293.329 391.6 285.227 400 284C402.584 274.553 407.696 272.018 413.084 264.892C416.872 259.882 418.289 253.406 421.403 248.004C423.391 244.554 426.956 242.365 428.822 238.91C431.502 233.949 431.515 226.493 432.895 221C435.13 212.105 439.352 203.257 439.906 194C440.465 184.657 437.058 173.564 436.294 164C435.298 151.543 434.029 141.648 427.062 131.001C426.074 129.491 423.767 125.456 427.191 125.037C431.801 124.473 435.52 131.654 437.11 135C441.502 144.248 443.108 162.175 452 168C447.225 107.996 417.455 48.5184 357 27.243C349.964 24.7668 342.237 25.7076 335 23.7053C320.03 19.5633 305.419 12.6457 290 10.3287C279.241 8.71204 269.677 10.5349 259 6L276 2C265.651 -4.1994 253.843 5.86716 243 5.99615C187.207 6.65991 130.474 42.969 99.8364 88C84.3464 110.767 67.4056 135.376 59.4398 162C52.8035 184.181 54 209.052 54 232C54 252.912 52.9663 275.362 56.4352 296C64.4459 343.659 90.382 388.89 121.576 425C150.743 458.762 190.208 485.464 234 495.5C243.139 497.594 270.774 505.613 277 496z"/>
<path style="fill:#b4415b; stroke:none;" d="M273.667 0.333344L274.333 0.666656L273.667 0.333344z"/>
<path style="fill:#bd667b; stroke:none;" d="M275 0L275 1L280 1L275 0z"/>
<path style="fill:#d37e92; stroke:none;" d="M280 0L281 1L280 0z"/>
<path style="fill:#010101; stroke:none;" d="M262 5L262 7C273.053 8.62506 285.201 8.69754 296 11.2361C308.934 14.2767 321.157 19.744 334 23.1157C341.573 25.104 349.715 24.0764 357 26.9267C404.226 45.4048 437.738 86.9875 446.25 136C448.048 146.353 453.135 158.577 452 169C442.128 157.927 441.68 125.574 424 125C426.076 131.26 431.213 135.76 433.451 142C436.975 151.822 436.195 162.772 437.17 173C437.896 180.621 440.511 188.328 439.907 196C439.36 202.942 436.22 209.348 434.478 216C432.678 222.87 432.23 231.501 429.298 237.907C427.513 241.807 423.436 244.194 421.324 248.015C404.97 277.607 381.239 304.07 348 316.575C327.714 324.207 304.406 324.823 283 325C288.192 332.38 311.541 330.977 320 331L320 332C285.149 345.421 250.821 322.919 224 303.434C217.143 298.453 192.536 292.6 197.647 278.078C199.842 271.843 207.156 281.393 211 282C209.093 262.968 201.433 244.628 201.054 225C200.666 204.862 210.494 184.807 222.156 169C244.967 138.081 283.52 127.4 317 148.065C324.368 152.613 333.24 157.938 337 166C319.037 162.798 305.891 147.875 286 150.286C226.037 157.554 203.319 223.818 236.44 271C256.161 299.094 291.937 311.941 325 302.572C335.44 299.613 342.703 293.571 352 288.518C364.166 281.908 375.972 277.7 383.856 265C389.794 255.434 398.539 240.071 400.535 229C402.856 216.128 401 202.974 401 190C401 171.227 400.056 152.498 392.573 135C384.098 115.184 370.451 98.8073 355 84.0394C321.524 52.0425 264.228 44.3582 221 59.6127C212.984 62.4412 207.671 70.0632 200 73.6729C192.273 77.309 183.532 76.4371 176.015 80.8796C170.238 84.2936 169.791 90.6765 164.867 94.412C160.691 97.5795 154.564 98.5712 150 101.439C137.574 109.248 125.002 120.132 115.17 131C106.493 140.591 104.156 149.568 99.1389 161C87.3787 187.798 80.4205 217.435 82.0934 247C83.3814 269.764 84.0218 296.533 95.3133 317C101.607 328.408 114.258 334.515 119.66 347C122.12 352.683 117.212 356.434 119.356 362.001C134.232 400.609 161.972 433.948 195 458.522C208.691 468.708 226.819 481.515 243 486.996C253.611 490.591 270.715 489.781 278 499L274 499L274 500L500 500L500 0L356 0L284 0.104187L262 5z"/>
<path style="fill:#d37e92; stroke:none;" d="M258 1L259 2L258 1z"/>
<path style="fill:#b4415b; stroke:none;" d="M259 1L260 2L259 1M276 1L277 2L276 1M257 2L258 3L257 2M272 2L273 3L272 2z"/>
<path style="fill:#bd667b; stroke:none;" d="M273 2L274 3L273 2z"/>
<path style="fill:#d37e92; stroke:none;" d="M256 3L257 4L256 3z"/>
<path style="fill:#b4415b; stroke:none;" d="M268 3L269 4L268 3z"/>
<path style="fill:#d37e92; stroke:none;" d="M269 3L270 4L269 3z"/>
<path style="fill:#b4415b; stroke:none;" d="M254 4L255 5L254 4M263 4L263 5L266 5L263 4z"/>
<path style="fill:#bd667b; stroke:none;" d="M230 5L230 6L234 6L230 5z"/>
<path style="fill:#b4415b; stroke:none;" d="M234 5L234 6L239 6L234 5z"/>
<path style="fill:#bd667b; stroke:none;" d="M239 5L239 6L249 6L239 5z"/>
<path style="fill:#b4415b; stroke:none;" d="M249 5L250 6L249 5z"/>
<path style="fill:#bd667b; stroke:none;" d="M260.333 5.66666L260.667 6.33334L260.333 5.66666z"/>
<path style="fill:#d37e92; stroke:none;" d="M261.333 5.66666L261.667 6.33334L261.333 5.66666M223 6L224 7L223 6z"/>
<path style="fill:#bd667b; stroke:none;" d="M224 6L225 7L224 6z"/>
<path style="fill:#b4415b; stroke:none;" d="M225 6L226 7L225 6M259 6L260 7L259 6M218 7L218 8L221 8L218 7M262.667 7.33334L263.333 7.66666L262.667 7.33334z"/>
<path style="fill:#bd667b; stroke:none;" d="M264 7L265 8L264 7z"/>
<path style="fill:#d37e92; stroke:none;" d="M265 7L266 8L265 7M214 8L215 9L214 8z"/>
<path style="fill:#b4415b; stroke:none;" d="M215 8L216 9L215 8M267 8L268 9L267 8z"/>
<path style="fill:#d37e92; stroke:none;" d="M268 8L269 9L268 8z"/>
<path style="fill:#bd667b; stroke:none;" d="M211 9L212 10L211 9z"/>
<path style="fill:#b4415b; stroke:none;" d="M212 9L213 10L212 9M271 9L272 10L271 9z"/>
<path style="fill:#d37e92; stroke:none;" d="M272.667 9.33334L273.333 9.66666L272.667 9.33334z"/>
<path style="fill:#b4415b; stroke:none;" d="M208 10L209 11L208 10M275 10L275 11L278 11L275 10z"/>
<path style="fill:#bd667b; stroke:none;" d="M278.667 10.3333L279.333 10.6667L278.667 10.3333z"/>
<path style="fill:#d37e92; stroke:none;" d="M280.667 10.3333L281.333 10.6667L280.667 10.3333z"/>
<path style="fill:#bd667b; stroke:none;" d="M282.667 10.3333L283.333 10.6667L282.667 10.3333M291 10L292 11L291 10z"/>
<path style="fill:#d37e92; stroke:none;" d="M292 10L293 11L292 10z"/>
<path style="fill:#b4415b; stroke:none;" d="M205.667 11.3333L206.333 11.6667L205.667 11.3333M294 11L294 12L297 12L294 11z"/>
<path style="fill:#d37e92; stroke:none;" d="M297 11L298 12L297 11M201 12L202 13L201 12z"/>
<path style="fill:#b4415b; stroke:none;" d="M202 12L203 13L202 12M299 12L300 13L299 12z"/>
<path style="fill:#bd667b; stroke:none;" d="M300 12L301 13L300 12z"/>
<path style="fill:#d37e92; stroke:none;" d="M198 13L199 14L198 13z"/>
<path style="fill:#b4415b; stroke:none;" d="M199 13L200 14L199 13z"/>
<path style="fill:#d37e92; stroke:none;" d="M303 13L304 14L303 13M196 14L197 15L196 14z"/>
<path style="fill:#b4415b; stroke:none;" d="M197 14L198 15L197 14M306 14L307 15L306 14z"/>
<path style="fill:#d37e92; stroke:none;" d="M307 14L308 15L307 14z"/>
<path style="fill:#b4415b; stroke:none;" d="M194 15L195 16L194 15M309 15L310 16L309 15z"/>
<path style="fill:#bd667b; stroke:none;" d="M310 15L311 16L310 15M191 16L192 17L191 16z"/>
<path style="fill:#b4415b; stroke:none;" d="M192 16L193 17L192 16M312 16L313 17L312 16z"/>
<path style="fill:#bd667b; stroke:none;" d="M313 16L314 17L313 16M189 17L190 18L189 17z"/>
<path style="fill:#b4415b; stroke:none;" d="M315 17L316 18L315 17z"/>
<path style="fill:#d37e92; stroke:none;" d="M316 17L317 18L316 17z"/>
<path style="fill:#bd667b; stroke:none;" d="M187 18L188 19L187 18z"/>
<path style="fill:#b4415b; stroke:none;" d="M317 18L318 19L317 18z"/>
<path style="fill:#d37e92; stroke:none;" d="M318 18L319 19L318 18z"/>
<path style="fill:#b4415b; stroke:none;" d="M185 19L186 20L185 19M320 19L321 20L320 19z"/>
<path style="fill:#bd667b; stroke:none;" d="M321.667 19.3333L322.333 19.6667L321.667 19.3333z"/>
<path style="fill:#b4415b; stroke:none;" d="M183 20L184 21L183 20M323.667 20.3333L324.333 20.6667L323.667 20.3333M327 21L328 22L327 21z"/>
<path style="fill:#d37e92; stroke:none;" d="M328 21L329 22L328 21z"/>
<path style="fill:#b4415b; stroke:none;" d="M179 22L180 23L179 22M330 22L331 23L330 22z"/>
<path style="fill:#d37e92; stroke:none;" d="M331 22L332 23L331 22z"/>
<path style="fill:#b4415b; stroke:none;" d="M177 23L178 24L177 23z"/>
<path style="fill:#bd667b; stroke:none;" d="M334.667 23.3333L335.333 23.6667L334.667 23.3333z"/>
<path style="fill:#b4415b; stroke:none;" d="M175 24L176 25L175 24M337 24L337 25L340 25L337 24M173 25L174 26L173 25M343.667 25.3333L344.333 25.6667L343.667 25.3333z"/>
<path style="fill:#d37e92; stroke:none;" d="M345.667 25.3333L346.333 25.6667L345.667 25.3333z"/>
<path style="fill:#b4415b; stroke:none;" d="M347 25L348 26L347 25M349 25L349 26L352 26L349 25z"/>
<path style="fill:#bd667b; stroke:none;" d="M352 25L353 26L352 25M171 26L172 27L171 26z"/>
<path style="fill:#b4415b; stroke:none;" d="M355 26L356 27L355 26z"/>
<path style="fill:#d37e92; stroke:none;" d="M356 26L357 27L356 26z"/>
<path style="fill:#bd667b; stroke:none;" d="M169 27L170 28L169 27z"/>
<path style="fill:#b4415b; stroke:none;" d="M357 27L358 28L357 27z"/>
<path style="fill:#bd667b; stroke:none;" d="M358 27L359 28L358 27z"/>
<path style="fill:#b4415b; stroke:none;" d="M168 28L169 29L168 28M360 28L361 29L360 28M166 29L167 30L166 29M362 29L363 30L362 29z"/>
<path style="fill:#d37e92; stroke:none;" d="M164 30L165 31L164 30z"/>
<path style="fill:#b4415b; stroke:none;" d="M364 30L365 31L364 30M366 31L367 32L366 31M161 32L162 33L161 32M368 32L369 33L368 32z"/>
<path style="fill:#d37e92; stroke:none;" d="M159 33L160 34L159 33z"/>
<path style="fill:#b4415b; stroke:none;" d="M370 33L371 34L370 33M158 34L159 35L158 34z"/>
<path style="fill:#d37e92; stroke:none;" d="M372 34L373 35L372 34z"/>
<path style="fill:#b4415b; stroke:none;" d="M157 35L158 36L157 35M373 35L374 36L373 35M155 36L156 37L155 36M375 36L376 37L375 36z"/>
<path style="fill:#d37e92; stroke:none;" d="M153 37L154 38L153 37M377 37L378 38L377 37z"/>
<path style="fill:#b4415b; stroke:none;" d="M152 38L153 39L152 38M378 38L379 39L378 38z"/>
<path style="fill:#d37e92; stroke:none;" d="M150 39L151 40L150 39M380 39L381 40L380 39z"/>
<path style="fill:#b4415b; stroke:none;" d="M149 40L150 41L149 40M381 40L382 41L381 40M142 41L143 42L142 41z"/>
<path style="fill:#bd667b; stroke:none;" d="M143 41L144 42L143 41z"/>
<path style="fill:#d37e92; stroke:none;" d="M146 41L147 42L146 41z"/>
<path style="fill:#b4415b; stroke:none;" d="M147 41L148 42L147 41z"/>
<path style="fill:#bd667b; stroke:none;" d="M383 41L384 42L383 41z"/>
<path style="fill:#b4415b; stroke:none;" d="M141 42L142 43L141 42z"/>
<path style="fill:#d37e92; stroke:none;" d="M139 43L140 44L139 43M386 43L387 44L386 43z"/>
<path style="fill:#bd667b; stroke:none;" d="M138 44L139 45L138 44z"/>
<path style="fill:#b4415b; stroke:none;" d="M387 44L388 45L387 44M137 45L138 46L137 45z"/>
<path style="fill:#d37e92; stroke:none;" d="M389 45L390 46L389 45z"/>
<path style="fill:#b4415b; stroke:none;" d="M390 46L391 47L390 46z"/>
<path style="fill:#d37e92; stroke:none;" d="M134 47L135 48L134 47M392 47L393 48L392 47M133 48L134 49L133 48z"/>
<path style="fill:#bd667b; stroke:none;" d="M393 48L394 49L393 48z"/>
<path style="fill:#d37e92; stroke:none;" d="M132 49L133 50L132 49z"/>
<path style="fill:#b4415b; stroke:none;" d="M394 49L395 50L394 49z"/>
<path style="fill:#d37e92; stroke:none;" d="M131 50L132 51L131 50z"/>
<path style="fill:#b4415b; stroke:none;" d="M395 50L396 51L395 50z"/>
<path style="fill:#d37e92; stroke:none;" d="M130 51L131 52L130 51z"/>
<path style="fill:#bd667b; stroke:none;" d="M397 51L398 52L397 51z"/>
<path style="fill:#d37e92; stroke:none;" d="M129 52L130 53L129 52z"/>
<path style="fill:#bd667b; stroke:none;" d="M398 52L399 53L398 52z"/>
<path style="fill:#d37e92; stroke:none;" d="M128 53L129 54L128 53z"/>
<path style="fill:#b4415b; stroke:none;" d="M258 53L259 54L258 53z"/>
<path style="fill:#bd667b; stroke:none;" d="M259 53L259 54L262 54L259 53z"/>
<path style="fill:#d37e92; stroke:none;" d="M262 53L263 54L262 53M283 53L284 54L283 53z"/>
<path style="fill:#bd667b; stroke:none;" d="M284.667 53.3333L285.333 53.6667L284.667 53.3333z"/>
<path style="fill:#b4415b; stroke:none;" d="M286 53L287 54L286 53M399 53L400 54L399 53z"/>
<path style="fill:#d37e92; stroke:none;" d="M127 54L128 55L127 54z"/>
<path style="fill:#b4415b; stroke:none;" d="M247 54L247 55L250 55L247 54z"/>
<path style="fill:#bd667b; stroke:none;" d="M250 54L251 55L250 54z"/>
<path style="fill:#d37e92; stroke:none;" d="M251 54L252 55L251 54M293 54L294 55L293 54z"/>
<path style="fill:#b4415b; stroke:none;" d="M294.667 54.3333L295.333 54.6667L294.667 54.3333z"/>
<path style="fill:#d37e92; stroke:none;" d="M401 54L402 55L401 54M126 55L127 56L126 55z"/>
<path style="fill:#b4415b; stroke:none;" d="M239 55L239 56L243 56L239 55z"/>
<path style="fill:#d37e92; stroke:none;" d="M243 55L244 56L243 55z"/>
<path style="fill:#b4415b; stroke:none;" d="M299 55L299 56L302 56L299 55z"/>
<path style="fill:#d37e92; stroke:none;" d="M402 55L403 56L402 55M125 56L126 57L125 56z"/>
<path style="fill:#b4415b; stroke:none;" d="M233.667 56.3333L234.333 56.6667L233.667 56.3333z"/>
<path style="fill:#bd667b; stroke:none;" d="M235 56L236 57L235 56z"/>
<path style="fill:#d37e92; stroke:none;" d="M236 56L237 57L236 56M303 56L304 57L303 56z"/>
<path style="fill:#b4415b; stroke:none;" d="M304.667 56.3333L305.333 56.6667L304.667 56.3333z"/>
<path style="fill:#d37e92; stroke:none;" d="M403 56L404 57L403 56z"/>
<path style="fill:#b4415b; stroke:none;" d="M229 57L230 58L229 57z"/>
<path style="fill:#d37e92; stroke:none;" d="M230 57L231 58L230 57M307 57L308 58L307 57z"/>
<path style="fill:#b4415b; stroke:none;" d="M308 57L309 58L308 57M404 57L405 58L404 57M124 58L125 59L124 58M224 58L225 59L224 58z"/>
<path style="fill:#d37e92; stroke:none;" d="M225 58L226 59L225 58z"/>
<path style="fill:#bd667b; stroke:none;" d="M311 58L312 59L311 58z"/>
<path style="fill:#b4415b; stroke:none;" d="M312 58L313 59L312 58M405 58L406 59L405 58M123 59L124 60L123 59M219 59L220 60L219 59z"/>
<path style="fill:#bd667b; stroke:none;" d="M220 59L221 60L220 59z"/>
<path style="fill:#b4415b; stroke:none;" d="M314.667 59.3333L315.333 59.6667L314.667 59.3333M406 59L407 60L406 59M122 60L123 61L122 60z"/>
<path style="fill:#bd667b; stroke:none;" d="M218 60L219 61L218 60z"/>
<path style="fill:#b4415b; stroke:none;" d="M317 60L318 61L317 60M407 60L408 61L407 60M121 61L122 62L121 61M216 61L217 62L216 61z"/>
<path style="fill:#d37e92; stroke:none;" d="M319 61L320 62L319 61z"/>
<path style="fill:#b4415b; stroke:none;" d="M320 61L321 62L320 61M408 61L409 62L408 61z"/>
<path style="fill:#bd667b; stroke:none;" d="M120 62L121 63L120 62z"/>
<path style="fill:#b4415b; stroke:none;" d="M215 62L216 63L215 62M322 62L323 63L322 62M409 62L410 63L409 62z"/>
<path style="fill:#d37e92; stroke:none;" d="M119 63L120 64L119 63z"/>
<path style="fill:#b4415b; stroke:none;" d="M213 63L214 64L213 63z"/>
<path style="fill:#d37e92; stroke:none;" d="M214 63L215 64L214 63z"/>
<path style="fill:#b4415b; stroke:none;" d="M324 63L325 64L324 63M410 63L411 64L410 63z"/>
<path style="fill:#d37e92; stroke:none;" d="M118 64L119 65L118 64z"/>
<path style="fill:#b4415b; stroke:none;" d="M212 64L213 65L212 64z"/>
<path style="fill:#bd667b; stroke:none;" d="M326 64L327 65L326 64z"/>
<path style="fill:#b4415b; stroke:none;" d="M327 64L328 65L327 64M411 64L412 65L411 64M211 65L212 66L211 65z"/>
<path style="fill:#d37e92; stroke:none;" d="M328 65L329 66L328 65z"/>
<path style="fill:#b4415b; stroke:none;" d="M329 65L330 66L329 65M412 65L413 66L412 65M117 66L118 67L117 66z"/>
<path style="fill:#d37e92; stroke:none;" d="M210 66L211 67L210 66z"/>
<path style="fill:#b4415b; stroke:none;" d="M330 66L331 67L330 66z"/>
<path style="fill:#bd667b; stroke:none;" d="M413 66L414 67L413 66z"/>
<path style="fill:#b4415b; stroke:none;" d="M116 67L117 68L116 67z"/>
<path style="fill:#d37e92; stroke:none;" d="M209 67L210 68L209 67z"/>
<path style="fill:#b4415b; stroke:none;" d="M332 67L333 68L332 67z"/>
<path style="fill:#d37e92; stroke:none;" d="M414 67L415 68L414 67z"/>
<path style="fill:#b4415b; stroke:none;" d="M115 68L116 69L115 68z"/>
<path style="fill:#d37e92; stroke:none;" d="M208 68L209 69L208 68M333 68L334 69L333 68z"/>
<path style="fill:#b4415b; stroke:none;" d="M334 68L335 69L334 68z"/>
<path style="fill:#d37e92; stroke:none;" d="M415 68L416 69L415 68z"/>
<path style="fill:#b4415b; stroke:none;" d="M114 69L115 70L114 69M206 69L207 70L206 69z"/>
<path style="fill:#d37e92; stroke:none;" d="M335 69L336 70L335 69M416 69L417 70L416 69z"/>
<path style="fill:#b4415b; stroke:none;" d="M113 70L114 71L113 70z"/>
<path style="fill:#bd667b; stroke:none;" d="M205 70L206 71L205 70z"/>
<path style="fill:#b4415b; stroke:none;" d="M337 70L338 71L337 70z"/>
<path style="fill:#bd667b; stroke:none;" d="M112 71L113 72L112 71z"/>
<path style="fill:#b4415b; stroke:none;" d="M203 71L204 72L203 71z"/>
<path style="fill:#d37e92; stroke:none;" d="M204 71L205 72L204 71M338 71L339 72L338 71z"/>
<path style="fill:#b4415b; stroke:none;" d="M417 71L418 72L417 71M201 72L202 73L201 72z"/>
<path style="fill:#bd667b; stroke:none;" d="M202 72L203 73L202 72z"/>
<path style="fill:#b4415b; stroke:none;" d="M340 72L341 73L340 72z"/>
<path style="fill:#bd667b; stroke:none;" d="M418 72L419 73L418 72M200 73L201 74L200 73M341 73L342 74L341 73M419 73L420 74L419 73z"/>
<path style="fill:#b4415b; stroke:none;" d="M110 74L111 75L110 74M197 74L198 75L197 74z"/>
<path style="fill:#d37e92; stroke:none;" d="M198 74L199 75L198 74z"/>
<path style="fill:#b4415b; stroke:none;" d="M343 74L344 75L343 74M109 75L110 76L109 75M194.667 75.3333L195.333 75.6667L194.667 75.3333z"/>
<path style="fill:#d37e92; stroke:none;" d="M344 75L345 76L344 75z"/>
<path style="fill:#b4415b; stroke:none;" d="M420 75L421 76L420 75z"/>
<path style="fill:#d37e92; stroke:none;" d="M108 76L109 77L108 76z"/>
<path style="fill:#b4415b; stroke:none;" d="M185 76L185 77L189 77L185 76z"/>
<path style="fill:#d37e92; stroke:none;" d="M189 76L190 77L189 76z"/>
<path style="fill:#b4415b; stroke:none;" d="M346 76L347 77L346 76M421 76L422 77L421 76z"/>
<path style="fill:#d37e92; stroke:none;" d="M107 77L108 78L107 77z"/>
<path style="fill:#bd667b; stroke:none;" d="M182 77L183 78L182 77z"/>
<path style="fill:#d37e92; stroke:none;" d="M183 77L184 78L183 77z"/>
<path style="fill:#b4415b; stroke:none;" d="M347 77L348 78L347 77M422 77L423 78L422 77M179 78L180 79L179 78z"/>
<path style="fill:#d37e92; stroke:none;" d="M180 78L181 79L180 78z"/>
<path style="fill:#bd667b; stroke:none;" d="M348 78L349 79L348 78z"/>
<path style="fill:#b4415b; stroke:none;" d="M106 79L107 80L106 79M177 79L178 80L177 79z"/>
<path style="fill:#d37e92; stroke:none;" d="M178 79L179 80L178 79M349 79L350 80L349 79z"/>
<path style="fill:#bd667b; stroke:none;" d="M105 80L106 81L105 80z"/>
<path style="fill:#b4415b; stroke:none;" d="M175 80L176 81L175 80z"/>
<path style="fill:#d37e92; stroke:none;" d="M176 80L177 81L176 80z"/>
<path style="fill:#b4415b; stroke:none;" d="M424 80L425 81L424 80z"/>
<path style="fill:#bd667b; stroke:none;" d="M104 81L105 82L104 81z"/>
<path style="fill:#b4415b; stroke:none;" d="M174 81L175 82L174 81M352 81L353 82L352 81z"/>
<path style="fill:#d37e92; stroke:none;" d="M425 81L426 82L425 81M103 82L104 83L103 82M173 82L174 83L173 82z"/>
<path style="fill:#b4415b; stroke:none;" d="M353 82L354 83L353 82M354 83L355 84L354 83M426 83L427 84L426 83M102 84L103 85L102 84z"/>
<path style="fill:#bd667b; stroke:none;" d="M355 84L356 85L355 84z"/>
<path style="fill:#d37e92; stroke:none;" d="M427 84L428 85L427 84M101 85L102 86L101 85M170 85L171 86L170 85M356 85L357 86L356 85M100 86L101 87L100 86z"/>
<path style="fill:#b4415b; stroke:none;" d="M169 86L170 87L169 86z"/>
<path style="fill:#d37e92; stroke:none;" d="M357 86L358 87L357 86z"/>
<path style="fill:#b4415b; stroke:none;" d="M428 86L429 87L428 86M168.333 87.6667L168.667 88.3333L168.333 87.6667z"/>
<path style="fill:#d37e92; stroke:none;" d="M358 87L359 88L358 87z"/>
<path style="fill:#bd667b; stroke:none;" d="M429 87L430 88L429 87z"/>
<path style="fill:#b4415b; stroke:none;" d="M99 88L100 89L99 88z"/>
<path style="fill:#d37e92; stroke:none;" d="M359 88L360 89L359 88M98 89L99 90L98 89M168 89L169 90L168 89M360 89L361 90L360 89z"/>
<path style="fill:#b4415b; stroke:none;" d="M430 89L431 90L430 89M98 90L99 91L98 90z"/>
<path style="fill:#d37e92; stroke:none;" d="M361 90L362 91L361 90z"/>
<path style="fill:#b4415b; stroke:none;" d="M97 91L98 92L97 91z"/>
<path style="fill:#d37e92; stroke:none;" d="M362 91L363 92L362 91z"/>
<path style="fill:#b4415b; stroke:none;" d="M431 91L432 92L431 91z"/>
<path style="fill:#d37e92; stroke:none;" d="M96 92L97 93L96 92z"/>
<path style="fill:#b4415b; stroke:none;" d="M167 92L168 93L167 92z"/>
<path style="fill:#d37e92; stroke:none;" d="M363 92L364 93L363 92M432 92L433 93L432 92z"/>
<path style="fill:#b4415b; stroke:none;" d="M166 93L167 94L166 93z"/>
<path style="fill:#bd667b; stroke:none;" d="M364 93L365 94L364 93z"/>
<path style="fill:#b4415b; stroke:none;" d="M95 94L96 95L95 94M165 94L166 95L165 94z"/>
<path style="fill:#bd667b; stroke:none;" d="M365 94L366 95L365 94z"/>
<path style="fill:#b4415b; stroke:none;" d="M433 94L434 95L433 94z"/>
<path style="fill:#d37e92; stroke:none;" d="M94 95L95 96L94 95M164 95L165 96L164 95z"/>
<path style="fill:#b4415b; stroke:none;" d="M366 95L367 96L366 95M158 96L159 97L158 96z"/>
<path style="fill:#d37e92; stroke:none;" d="M159 96L160 97L159 96z"/>
<path style="fill:#b4415b; stroke:none;" d="M367 96L368 97L367 96z"/>
<path style="fill:#bd667b; stroke:none;" d="M434 96L435 97L434 96z"/>
<path style="fill:#d37e92; stroke:none;" d="M93 97L94 98L93 97z"/>
<path style="fill:#b4415b; stroke:none;" d="M155.667 97.3333L156.333 97.6667L155.667 97.3333z"/>
<path style="fill:#d37e92; stroke:none;" d="M157 97L158 98L157 97z"/>
<path style="fill:#b4415b; stroke:none;" d="M368 97L369 98L368 97M154 98L155 99L154 98M435 98L436 99L435 98M92 99L93 100L92 99M152 99L153 100L152 99z"/>
<path style="fill:#d37e92; stroke:none;" d="M153 99L154 100L153 99M436 99L437 100L436 99M151 100L152 101L151 100z"/>
<path style="fill:#b4415b; stroke:none;" d="M436 100L437 101L436 100M91 101L92 102L91 101M149 101L150 102L149 101z"/>
<path style="fill:#d37e92; stroke:none;" d="M371 101L372 102L371 101M437 101L438 102L437 101M90 102L91 103L90 102z"/>
<path style="fill:#bd667b; stroke:none;" d="M148 102L149 103L148 102z"/>
<path style="fill:#b4415b; stroke:none;" d="M372 102L373 103L372 102M437 102L438 103L437 102M90 103L91 104L90 103M373 103L374 104L373 103z"/>
<path style="fill:#bd667b; stroke:none;" d="M89 104L90 105L89 104z"/>
<path style="fill:#b4415b; stroke:none;" d="M145 104L146 105L145 104M438 104L439 105L438 104z"/>
<path style="fill:#bd667b; stroke:none;" d="M144 105L145 106L144 105M88 106L89 107L88 106z"/>
<path style="fill:#b4415b; stroke:none;" d="M142 106L143 107L142 106z"/>
<path style="fill:#bd667b; stroke:none;" d="M375 106L376 107L375 106z"/>
<path style="fill:#d37e92; stroke:none;" d="M439 106L440 107L439 106z"/>
<path style="fill:#b4415b; stroke:none;" d="M141 107L142 108L141 107M376 107L377 108L376 107M439 107L440 108L439 107M87 108L88 109L87 108M140 108L141 109L140 108M377 108L378 109L377 108z"/>
<path style="fill:#d37e92; stroke:none;" d="M440 108L441 109L440 108z"/>
<path style="fill:#b4415b; stroke:none;" d="M66 109L67 110L66 109z"/>
<path style="fill:#c50236; stroke:none;" d="M62 119C67.5589 117.854 69.6304 114.503 70 109C64.4731 110.142 62.5582 113.589 62 119z"/>
<path style="fill:#bd667b; stroke:none;" d="M86 109L87 110L86 109M139 109L140 110L139 109M64 110L65 111L64 110M70.3333 110.667L70.6667 111.333L70.3333 110.667z"/>
<path style="fill:#b4415b; stroke:none;" d="M86 110L87 111L86 110M137 110L138 111L137 110z"/>
<path style="fill:#bd667b; stroke:none;" d="M378 110L379 111L378 110z"/>
<path style="fill:#d37e92; stroke:none;" d="M63 111L64 112L63 111z"/>
<path style="fill:#b4415b; stroke:none;" d="M85 111L86 112L85 111M136 111L137 112L136 111M379 111L380 112L379 111z"/>
<path style="fill:#bd667b; stroke:none;" d="M441 111L442 112L441 111z"/>
<path style="fill:#b4415b; stroke:none;" d="M63 112L64 113L63 112M135 112L136 113L135 112M441 112L442 113L441 112M62.3333 113.667L62.6667 114.333L62.3333 113.667M84 113L85 114L84 113M134 113L135 114L134 113z"/>
<path style="fill:#bd667b; stroke:none;" d="M380 113L381 114L380 113M69 114L70 115L69 114z"/>
<path style="fill:#d37e92; stroke:none;" d="M83 114L84 115L83 114M133 114L134 115L133 114z"/>
<path style="fill:#b4415b; stroke:none;" d="M381 114L382 115L381 114z"/>
<path style="fill:#bd667b; stroke:none;" d="M442 114L443 115L442 114M61.3333 115.667L61.6667 116.333L61.3333 115.667z"/>
<path style="fill:#b4415b; stroke:none;" d="M68 115L69 116L68 115M131 115L132 116L131 115M442 115L443 116L442 115M82 116L83 117L82 116z"/>
<path style="fill:#d37e92; stroke:none;" d="M382 116L383 117L382 116z"/>
<path style="fill:#b4415b; stroke:none;" d="M61.3333 117.667L61.6667 118.333L61.3333 117.667z"/>
<path style="fill:#d37e92; stroke:none;" d="M67 117L68 118L67 117M81 117L82 118L81 117z"/>
<path style="fill:#b4415b; stroke:none;" d="M65 118L66 119L65 118M128 118L129 119L128 118z"/>
<path style="fill:#bd667b; stroke:none;" d="M443 118L444 119L443 118z"/>
<path style="fill:#b4415b; stroke:none;" d="M62.6667 119.333L63.3333 119.667L62.6667 119.333M80 119L81 120L80 119M127 119L128 120L127 119z"/>
<path style="fill:#bd667b; stroke:none;" d="M384 119L385 120L384 119z"/>
<path style="fill:#b4415b; stroke:none;" d="M443 119L444 120L443 119z"/>
<path style="fill:#bd667b; stroke:none;" d="M79 120L80 121L79 120M126 120L127 121L126 120z"/>
<path style="fill:#b4415b; stroke:none;" d="M385 120L386 121L385 120z"/>
<path style="fill:#bd667b; stroke:none;" d="M125 121L126 122L125 121z"/>
<path style="fill:#b4415b; stroke:none;" d="M78 122L79 123L78 122z"/>
<path style="fill:#d37e92; stroke:none;" d="M124 122L125 123L124 122z"/>
<path style="fill:#b4415b; stroke:none;" d="M386 122L387 123L386 122M77 123L78 124L77 123z"/>
<path style="fill:#bd667b; stroke:none;" d="M444.333 123.667L444.667 124.333L444.333 123.667z"/>
<path style="fill:#b4415b; stroke:none;" d="M76 124L77 125L76 124M387 124L388 125L387 124M425 124L425 125L429 125L425 124z"/>
<path style="fill:#d37e92; stroke:none;" d="M75 125L76 126L75 125z"/>
<path style="fill:#bd667b; stroke:none;" d="M430 125L431 126L430 125z"/>
<path style="fill:#b4415b; stroke:none;" d="M444 125L445 126L444 125z"/>
<path style="fill:#bd667b; stroke:none;" d="M388 126L389 127L388 126M431 126L432 127L431 126z"/>
<path style="fill:#b4415b; stroke:none;" d="M74 127L75 128L74 127z"/>
<path style="fill:#d37e92; stroke:none;" d="M424 127L425 128L424 127z"/>
<path style="fill:#bd667b; stroke:none;" d="M432 127L433 128L432 127z"/>
<path style="fill:#b4415b; stroke:none;" d="M389 128L390 129L389 128M433 128L434 129L433 128M73 129L74 130L73 129M425 129L426 130L425 129z"/>
<path style="fill:#d37e92; stroke:none;" d="M72 130L73 131L72 130z"/>
<path style="fill:#b4415b; stroke:none;" d="M390 130L391 131L390 130z"/>
<path style="fill:#bd667b; stroke:none;" d="M426 130L427 131L426 130z"/>
<path style="fill:#d37e92; stroke:none;" d="M434 130L435 131L434 130z"/>
<path style="fill:#bd667b; stroke:none;" d="M427 131L428 132L427 131z"/>
<path style="fill:#b4415b; stroke:none;" d="M435 131L436 132L435 131z"/>
<path style="fill:#d37e92; stroke:none;" d="M445 131L446 132L445 131z"/>
<path style="fill:#bd667b; stroke:none;" d="M71 132L72 133L71 132z"/>
<path style="fill:#b4415b; stroke:none;" d="M391 132L392 133L391 132z"/>
<path style="fill:#bd667b; stroke:none;" d="M445 132L446 133L445 132z"/>
<path style="fill:#b4415b; stroke:none;" d="M436 133L437 134L436 133M445.333 133.667L445.667 134.333L445.333 133.667z"/>
<path style="fill:#bd667b; stroke:none;" d="M70 134L71 135L70 134M112 134L113 135L112 134z"/>
<path style="fill:#b4415b; stroke:none;" d="M392 134L393 135L392 134M429 134L430 135L429 134M70 135L71 136L70 135z"/>
<path style="fill:#bd667b; stroke:none;" d="M111 135L112 136L111 135M430 135L431 136L430 135z"/>
<path style="fill:#b4415b; stroke:none;" d="M437 135L438 136L437 135z"/>
<path style="fill:#d37e92; stroke:none;" d="M69 136L70 137L69 136z"/>
<path style="fill:#b4415b; stroke:none;" d="M110 136L111 137L110 136M393 136L394 137L393 136z"/>
<path style="fill:#d37e92; stroke:none;" d="M437 136L438 137L437 136z"/>
<path style="fill:#b4415b; stroke:none;" d="M69 137L70 138L69 137M109 137L110 138L109 137M270 137L270 138L277 138L270 137M282 137L282 138L289 138L282 137z"/>
<path style="fill:#bd667b; stroke:none;" d="M289 137L290 138L289 137M393 137L394 138L393 137z"/>
<path style="fill:#b4415b; stroke:none;" d="M431 137L432 138L431 137z"/>
<path style="fill:#bd667b; stroke:none;" d="M446.333 137.667L446.667 138.333L446.333 137.667z"/>
<path style="fill:#b4415b; stroke:none;" d="M265.667 138.333L266.333 138.667L265.667 138.333M292.667 138.333L293.333 138.667L292.667 138.333M438 138L439 139L438 138M68 139L69 140L68 139M261 139L262 140L261 139z"/>
<path style="fill:#bd667b; stroke:none;" d="M297 139L298 140L297 139z"/>
<path style="fill:#b4415b; stroke:none;" d="M394 139L395 140L394 139z"/>
<path style="fill:#bd667b; stroke:none;" d="M432 139L433 140L432 139z"/>
<path style="fill:#b4415b; stroke:none;" d="M446 139L446 142L447 142L446 139z"/>
<path style="fill:#bd667b; stroke:none;" d="M107 140L108 141L107 140M258 140L259 141L258 140z"/>
<path style="fill:#b4415b; stroke:none;" d="M300 140L301 141L300 140z"/>
<path style="fill:#d37e92; stroke:none;" d="M301 140L302 141L301 140z"/>
<path style="fill:#b4415b; stroke:none;" d="M439 140L440 141L439 140M67 141L68 142L67 141M106 141L107 142L106 141M256 141L257 142L256 141M303 141L304 142L303 141z"/>
<path style="fill:#bd667b; stroke:none;" d="M433 141L434 142L433 141M439 141L440 142L439 141z"/>
<path style="fill:#b4415b; stroke:none;" d="M105 142L106 143L105 142M253.667 142.333L254.333 142.667L253.667 142.333M305.667 142.333L306.333 142.667L305.667 142.333z"/>
<path style="fill:#bd667b; stroke:none;" d="M395 142L396 143L395 142z"/>
<path style="fill:#b4415b; stroke:none;" d="M433.333 142.667L433.667 143.333L433.333 142.667z"/>
<path style="fill:#d37e92; stroke:none;" d="M447 142L447 145L448 145L447 142z"/>
<path style="fill:#b4415b; stroke:none;" d="M66 143L67 144L66 143M251 143L252 144L251 143M308 143L309 144L308 143M440 143L441 144L440 143M104 144L105 145L104 144M249 144L250 145L249 144M310 144L311 145L310 144M396 144L397 145L396 144z"/>
<path style="fill:#bd667b; stroke:none;" d="M440 144L441 145L440 144M65 145L66 146L65 145z"/>
<path style="fill:#b4415b; stroke:none;" d="M247 145L248 146L247 145M312 145L313 146L312 145z"/>
<path style="fill:#d37e92; stroke:none;" d="M396 145L397 146L396 145z"/>
<path style="fill:#bd667b; stroke:none;" d="M434 145L435 146L434 145M447 145L448 146L447 145M53 146L52 148L53 146z"/>
<path style="fill:#b4415b; stroke:none;" d="M65 146L66 147L65 146M103 146L104 147L103 146z"/>
<path style="fill:#bd667b; stroke:none;" d="M245 146L246 147L245 146z"/>
<path style="fill:#b4415b; stroke:none;" d="M314 146L315 147L314 146M434.333 146.667L434.667 147.333L434.333 146.667M441 146L442 147L441 146z"/>
<path style="fill:#c50236; stroke:none;" d="M53 147C50.0302 152.224 46.1406 161.306 54 164L53 147z"/>
<path style="fill:#b4415b; stroke:none;" d="M54 147L54 162L55 162L54 147z"/>
<path style="fill:#d37e92; stroke:none;" d="M103.333 147.667L103.667 148.333L103.333 147.667z"/>
<path style="fill:#bd667b; stroke:none;" d="M316 147L317 148L316 147z"/>
<path style="fill:#b4415b; stroke:none;" d="M397.333 147.667L397.667 148.333L397.333 147.667z"/>
<path style="fill:#d37e92; stroke:none;" d="M441 147L442 148L441 147M51 148L52 149L51 148z"/>
<path style="fill:#b4415b; stroke:none;" d="M64 148L65 149L64 148z"/>
<path style="fill:#bd667b; stroke:none;" d="M242 148L243 149L242 148z"/>
<path style="fill:#b4415b; stroke:none;" d="M317 148L318 149L317 148z"/>
<path style="fill:#d37e92; stroke:none;" d="M448.333 148.667L448.667 149.333L448.333 148.667z"/>
<path style="fill:#b4415b; stroke:none;" d="M51 149L52 150L51 149M241 149L242 150L241 149z"/>
<path style="fill:#bd667b; stroke:none;" d="M319 149L320 150L319 149M397 149L398 150L397 149z"/>
<path style="fill:#b4415b; stroke:none;" d="M442 149L443 150L442 149z"/>
<path style="fill:#d37e92; stroke:none;" d="M50 150L51 151L50 150M63 150L64 151L63 150z"/>
<path style="fill:#b4415b; stroke:none;" d="M102 150L103 151L102 150M283 150L284 151L283 150z"/>
<path style="fill:#bd667b; stroke:none;" d="M284 150L285 151L284 150z"/>
<path style="fill:#d37e92; stroke:none;" d="M294 150L295 151L294 150z"/>
<path style="fill:#bd667b; stroke:none;" d="M295.667 150.333L296.333 150.667L295.667 150.333z"/>
<path style="fill:#b4415b; stroke:none;" d="M297 150L298 151L297 150M320 150L321 151L320 150z"/>
<path style="fill:#d37e92; stroke:none;" d="M435 150L436 151L435 150M442 150L443 151L442 150z"/>
<path style="fill:#b4415b; stroke:none;" d="M448 150L449 151L448 150M50 151L51 152L50 151z"/>
<path style="fill:#bd667b; stroke:none;" d="M102.333 151.667L102.667 152.333L102.333 151.667z"/>
<path style="fill:#b4415b; stroke:none;" d="M238 151L239 152L238 151M276 151L276 152L279 152L276 151M301 151L301 152L304 152L301 151z"/>
<path style="fill:#bd667b; stroke:none;" d="M322 151L323 152L322 151z"/>
<path style="fill:#b4415b; stroke:none;" d="M398 151L398 154L399 154L398 151z"/>
<path style="fill:#bd667b; stroke:none;" d="M435 151L436 152L435 151z"/>
<path style="fill:#d37e92; stroke:none;" d="M49 152L50 153L49 152M62 152L63 153L62 152z"/>
<path style="fill:#b4415b; stroke:none;" d="M237 152L238 153L237 152M273 152L274 153L273 152z"/>
<path style="fill:#bd667b; stroke:none;" d="M274 152L275 153L274 152M305 152L306 153L305 152z"/>
<path style="fill:#b4415b; stroke:none;" d="M306 152L307 153L306 152M435 152L436 153L435 152M443 152L444 153L443 152M49.3333 153.667L49.6667 154.333L49.3333 153.667M62.3333 153.667L62.6667 154.333L62.3333 153.667M236 153L237 154L236 153M270 153L271 154L270 153z"/>
<path style="fill:#bd667b; stroke:none;" d="M271 153L272 154L271 153z"/>
<path style="fill:#d37e92; stroke:none;" d="M308 153L309 154L308 153z"/>
<path style="fill:#b4415b; stroke:none;" d="M309 153L310 154L309 153z"/>
<path style="fill:#bd667b; stroke:none;" d="M325 153L326 154L325 153M443 153L444 154L443 153z"/>
<path style="fill:#b4415b; stroke:none;" d="M449.333 153.667L449.667 154.333L449.333 153.667M101.333 154.667L101.667 155.333L101.333 154.667z"/>
<path style="fill:#bd667b; stroke:none;" d="M268 154L269 155L268 154M311 154L312 155L311 154z"/>
<path style="fill:#b4415b; stroke:none;" d="M326 154L327 155L326 154M444.333 154.667L444.667 155.333L444.333 154.667z"/>
<path style="fill:#bd667b; stroke:none;" d="M61 155L62 156L61 155M266 155L267 156L266 155M313 155L314 156L313 155M48.3333 156.667L48.6667 157.333L48.3333 156.667z"/>
<path style="fill:#b4415b; stroke:none;" d="M61 156L62 157L61 156M263 156L264 157L263 156M316 156L317 157L316 156z"/>
<path style="fill:#bd667b; stroke:none;" d="M329 156L330 157L329 156z"/>
<path style="fill:#d37e92; stroke:none;" d="M450 156L451 157L450 156z"/>
<path style="fill:#b4415b; stroke:none;" d="M100 157L101 158L100 157M261 157L262 158L261 157M318 157L319 158L318 157M330 157L331 158L330 157M445 157L446 158L445 157M450.333 157.667L450.667 158.333L450.333 157.667z"/>
<path style="fill:#d37e92; stroke:none;" d="M48 158L49 159L48 158z"/>
<path style="fill:#bd667b; stroke:none;" d="M60 158L61 159L60 158M230 158L231 159L230 158M259 158L260 159L259 158z"/>
<path style="fill:#b4415b; stroke:none;" d="M320 158L321 159L320 158M331 158L332 159L331 158z"/>
<path style="fill:#bd667b; stroke:none;" d="M445 158L446 159L445 158z"/>
<path style="fill:#b4415b; stroke:none;" d="M257 159L258 160L257 159z"/>
<path style="fill:#bd667b; stroke:none;" d="M321 159L322 160L321 159z"/>
<path style="fill:#b4415b; stroke:none;" d="M332 159L333 160L332 159M399 159L400 160L399 159M49 160L50 161L49 160z"/>
<path style="fill:#d37e92; stroke:none;" d="M59 160L60 161L59 160M99 160L100 161L99 160z"/>
<path style="fill:#b4415b; stroke:none;" d="M255 160L256 161L255 160z"/>
<path style="fill:#bd667b; stroke:none;" d="M323 160L324 161L323 160z"/>
<path style="fill:#b4415b; stroke:none;" d="M333 160L334 161L333 160z"/>
<path style="fill:#d37e92; stroke:none;" d="M399 160L400 161L399 160z"/>
<path style="fill:#bd667b; stroke:none;" d="M446 160L447 161L446 160M451.333 160.667L451.667 161.333L451.333 160.667M49 161L50 162L49 161z"/>
<path style="fill:#b4415b; stroke:none;" d="M59 161L60 162L59 161M253 161L254 162L253 161z"/>
<path style="fill:#bd667b; stroke:none;" d="M325 161L326 162L325 161z"/>
<path style="fill:#b4415b; stroke:none;" d="M334 161L335 162L334 161M50 162L51 163L50 162z"/>
<path style="fill:#d37e92; stroke:none;" d="M54 162L55 163L54 162z"/>
<path style="fill:#bd667b; stroke:none;" d="M98 162L99 163L98 162z"/>
<path style="fill:#b4415b; stroke:none;" d="M227 162L228 163L227 162z"/>
<path style="fill:#bd667b; stroke:none;" d="M252 162L253 163L252 162M327 162L328 163L327 162z"/>
<path style="fill:#b4415b; stroke:none;" d="M335 162L336 163L335 162z"/>
<path style="fill:#d37e92; stroke:none;" d="M436.333 162.667L436.667 163.333L436.333 162.667z"/>
<path style="fill:#b4415b; stroke:none;" d="M447 162L448 163L447 162M451.333 162.667L451.667 163.333L451.333 162.667z"/>
<path style="fill:#d37e92; stroke:none;" d="M58 163L59 164L58 163z"/>
<path style="fill:#b4415b; stroke:none;" d="M226 163L227 164L226 163M250 163L251 164L250 163M329 163L330 164L329 163M336 163L337 164L336 163z"/>
<path style="fill:#d37e92; stroke:none;" d="M447 163L448 164L447 163z"/>
<path style="fill:#b4415b; stroke:none;" d="M52 164L53 165L52 164z"/>
<path style="fill:#d37e92; stroke:none;" d="M53 164L54 165L53 164z"/>
<path style="fill:#b4415b; stroke:none;" d="M58.3333 164.667L58.6667 165.333L58.3333 164.667M97 164L98 165L97 164M225 164L226 165L225 164z"/>
<path style="fill:#d37e92; stroke:none;" d="M249 164L250 165L249 164z"/>
<path style="fill:#b4415b; stroke:none;" d="M331 164L332 165L331 164z"/>
<path style="fill:#bd667b; stroke:none;" d="M436 164L437 165L436 164z"/>
<path style="fill:#b4415b; stroke:none;" d="M448 164L449 165L448 164z"/>
<path style="fill:#d37e92; stroke:none;" d="M224 165L225 166L224 165z"/>
<path style="fill:#b4415b; stroke:none;" d="M247 165L248 166L247 165z"/>
<path style="fill:#bd667b; stroke:none;" d="M333 165L334 166L333 165z"/>
<path style="fill:#b4415b; stroke:none;" d="M334 165L335 166L334 165z"/>
<path style="fill:#d37e92; stroke:none;" d="M448 165L449 166L448 165M452 165L452 168L453 168L452 165z"/>
<path style="fill:#b4415b; stroke:none;" d="M96 166L97 167L96 166z"/>
<path style="fill:#bd667b; stroke:none;" d="M246 166L247 167L246 166z"/>
<path style="fill:#b4415b; stroke:none;" d="M436 166L436 169L437 169L436 166M449 166L450 167L449 166z"/>
<path style="fill:#bd667b; stroke:none;" d="M57.3333 167.667L57.6667 168.333L57.3333 167.667M245 167L246 168L245 167z"/>
<path style="fill:#b4415b; stroke:none;" d="M95 168L96 169L95 168M222 168L223 169L222 168z"/>
<path style="fill:#bd667b; stroke:none;" d="M400 168L400 172L401 172L400 168M451 168L452 169L451 168z"/>
<path style="fill:#b4415b; stroke:none;" d="M57.3333 169.667L57.6667 170.333L57.3333 169.667z"/>
<path style="fill:#d37e92; stroke:none;" d="M95 169L96 170L95 169M221 169L222 170L221 169z"/>
<path style="fill:#b4415b; stroke:none;" d="M242 169L243 170L242 169M94 170L95 171L94 170M241 170L242 171L241 170M220 171L221 172L220 171M240 171L241 172L240 171z"/>
<path style="fill:#d37e92; stroke:none;" d="M56 172L57 173L56 172z"/>
<path style="fill:#b4415b; stroke:none;" d="M93 172L94 173L93 172z"/>
<path style="fill:#bd667b; stroke:none;" d="M219 172L220 173L219 172z"/>
<path style="fill:#b4415b; stroke:none;" d="M239 172L240 173L239 172z"/>
<path style="fill:#bd667b; stroke:none;" d="M56 173L57 174L56 173M93 173L94 174L93 173z"/>
<path style="fill:#b4415b; stroke:none;" d="M238 173L239 174L238 173M56 174L57 175L56 174M237 174L238 175L237 174M92 175L93 176L92 175z"/>
<path style="fill:#bd667b; stroke:none;" d="M217 175L218 176L217 175z"/>
<path style="fill:#d37e92; stroke:none;" d="M437 175L438 176L437 175z"/>
<path style="fill:#b4415b; stroke:none;" d="M437 176L437 181L438 181L437 176M91 177L92 178L91 177M216 177L217 178L216 177z"/>
<path style="fill:#bd667b; stroke:none;" d="M235 177L236 178L235 177z"/>
<path style="fill:#d37e92; stroke:none;" d="M55.3333 178.667L55.6667 179.333L55.3333 178.667M91 178L92 179L91 178M215 178L216 179L215 178z"/>
<path style="fill:#bd667b; stroke:none;" d="M234 178L235 179L234 178M233 179L234 180L233 179M55 180L56 181L55 180z"/>
<path style="fill:#b4415b; stroke:none;" d="M90 180L91 181L90 180M214 180L215 181L214 180M232 180L233 181L232 180M213 182L214 183L213 182z"/>
<path style="fill:#bd667b; stroke:none;" d="M231 182L232 183L231 182z"/>
<path style="fill:#b4415b; stroke:none;" d="M89 183L90 184L89 183z"/>
<path style="fill:#bd667b; stroke:none;" d="M438.333 183.667L438.667 184.333L438.333 183.667M89 184L90 185L89 184z"/>
<path style="fill:#b4415b; stroke:none;" d="M212 184L213 185L212 184z"/>
<path style="fill:#d37e92; stroke:none;" d="M211 185L212 186L211 185z"/>
<path style="fill:#bd667b; stroke:none;" d="M229 185L230 186L229 185z"/>
<path style="fill:#b4415b; stroke:none;" d="M401 185L401 197L402 197L401 185M438 185L439 186L438 185M88.3333 186.667L88.6667 187.333L88.3333 186.667z"/>
<path style="fill:#bd667b; stroke:none;" d="M228 187L229 188L228 187M439 187L440 188L439 187z"/>
<path style="fill:#d37e92; stroke:none;" d="M54.3333 188.667L54.6667 189.333L54.3333 188.667M88 188L89 189L88 188z"/>
<path style="fill:#b4415b; stroke:none;" d="M210 188L211 189L210 188M227 189L228 190L227 189z"/>
<path style="fill:#bd667b; stroke:none;" d="M54 190L55 191L54 190z"/>
<path style="fill:#b4415b; stroke:none;" d="M209 190L210 191L209 190M54 191L54 208L55 208L54 191M87 191L88 192L87 191M226 191L227 192L226 191z"/>
<path style="fill:#d37e92; stroke:none;" d="M87 192L88 193L87 192z"/>
<path style="fill:#bd667b; stroke:none;" d="M208 192L209 193L208 192M225 193L226 194L225 193z"/>
<path style="fill:#d37e92; stroke:none;" d="M207 194L208 195L207 194z"/>
<path style="fill:#b4415b; stroke:none;" d="M86 195L87 196L86 195M207 195L208 196L207 195z"/>
<path style="fill:#d37e92; stroke:none;" d="M86 196L87 197L86 196M206 196L207 197L206 196z"/>
<path style="fill:#bd667b; stroke:none;" d="M224 196L225 197L224 196z"/>
<path style="fill:#b4415b; stroke:none;" d="M206 197L207 198L206 197z"/>
<path style="fill:#bd667b; stroke:none;" d="M401 197L401 207L402 207L401 197z"/>
<path style="fill:#b4415b; stroke:none;" d="M439 197L440 198L439 197M223.333 198.667L223.667 199.333L223.333 198.667z"/>
<path style="fill:#bd667b; stroke:none;" d="M439 198L440 199L439 198M205 199L206 200L205 199z"/>
<path style="fill:#b4415b; stroke:none;" d="M348 199L348 200L351 201L348 199z"/>
<path style="fill:#d37e92; stroke:none;" d="M439 199L440 200L439 199z"/>
<path style="fill:#b4415b; stroke:none;" d="M85 200L86 201L85 200M205.333 200.667L205.667 201.333L205.333 200.667z"/>
<path style="fill:#c50236; stroke:none;" d="M347 200C346.805 201.649 346.468 203.361 346.46 205.025C346.387 219.456 360.414 202.863 347 200z"/>
<path style="fill:#bd667b; stroke:none;" d="M85 201L85 204L86 204L85 201z"/>
<path style="fill:#d37e92; stroke:none;" d="M346 201L347 202L346 201z"/>
<path style="fill:#b4415b; stroke:none;" d="M438 201L439 202L438 201z"/>
<path style="fill:#bd667b; stroke:none;" d="M204.333 202.667L204.667 203.333L204.333 202.667z"/>
<path style="fill:#b4415b; stroke:none;" d="M222 202L223 203L222 202M346.333 202.667L346.667 203.333L346.333 202.667z"/>
<path style="fill:#bd667b; stroke:none;" d="M352 202L353 203L352 202M438 202L439 203L438 202z"/>
<path style="fill:#d37e92; stroke:none;" d="M222 203L223 204L222 203z"/>
<path style="fill:#b4415b; stroke:none;" d="M204 204L205 205L204 204z"/>
<path style="fill:#bd667b; stroke:none;" d="M353 204L354 205L353 204z"/>
<path style="fill:#b4415b; stroke:none;" d="M353 205L353 210L354 210L353 205M437.333 205.667L437.667 206.333L437.333 205.667M84 206L84 210L85 210L84 206z"/>
<path style="fill:#d37e92; stroke:none;" d="M203 206L204 207L203 206z"/>
<path style="fill:#b4415b; stroke:none;" d="M221 206L222 207L221 206z"/>
<path style="fill:#bd667b; stroke:none;" d="M203 207L204 208L203 207M221 207L222 208L221 207z"/>
<path style="fill:#b4415b; stroke:none;" d="M346 207L347 208L346 207z"/>
<path style="fill:#bd667b; stroke:none;" d="M437 207L438 208L437 207z"/>
<path style="fill:#b4415b; stroke:none;" d="M203 208L204 209L203 208z"/>
<path style="fill:#d37e92; stroke:none;" d="M221 208L222 209L221 208z"/>
<path style="fill:#bd667b; stroke:none;" d="M346 208L347 209L346 208z"/>
<path style="fill:#b4415b; stroke:none;" d="M436 209L437 210L436 209z"/>
<path style="fill:#d37e92; stroke:none;" d="M84.3333 210.667L84.6667 211.333L84.3333 210.667z"/>
<path style="fill:#bd667b; stroke:none;" d="M347 211L348 212L347 211z"/>
<path style="fill:#b4415b; stroke:none;" d="M352 211L353 212L352 211z"/>
<path style="fill:#bd667b; stroke:none;" d="M202 212L203 213L202 212z"/>
<path style="fill:#b4415b; stroke:none;" d="M220.333 212.667L220.667 213.333L220.333 212.667M348 212L349 213L348 212M351 212L352 213L351 212M435 212L436 213L435 212M202 213L203 214L202 213z"/>
<path style="fill:#bd667b; stroke:none;" d="M220 214L220 218L221 218L220 214z"/>
<path style="fill:#b4415b; stroke:none;" d="M434 215L435 216L434 215z"/>
<path style="fill:#bd667b; stroke:none;" d="M401.333 216.667L401.667 217.333L401.333 216.667M83 218L84 219L83 218z"/>
<path style="fill:#d37e92; stroke:none;" d="M220 218L220 226L221 226L220 218z"/>
<path style="fill:#b4415b; stroke:none;" d="M401 218L401 223L402 223L401 218M433.333 218.667L433.667 219.333L433.333 218.667z"/>
<path style="fill:#d37e92; stroke:none;" d="M83 219L84 220L83 219M201 219L202 220L201 219z"/>
<path style="fill:#bd667b; stroke:none;" d="M201.333 220.667L201.667 221.333L201.333 220.667M433 220L434 221L433 220z"/>
<path style="fill:#b4415b; stroke:none;" d="M201 222L201 226L202 226L201 222M432 222L433 223L432 222z"/>
<path style="fill:#d37e92; stroke:none;" d="M432 223L433 224L432 223z"/>
<path style="fill:#b4415b; stroke:none;" d="M436 223L436 224L439 225L436 223z"/>
<path style="fill:#bd667b; stroke:none;" d="M435 224L436 225L435 224z"/>
<path style="fill:#c50236; stroke:none;" d="M436 224L426 272L427 272C434.62 259.539 442.341 238.685 438 224L436 224z"/>
<path style="fill:#b4415b; stroke:none;" d="M435.333 225.667L435.667 226.333L435.333 225.667z"/>
<path style="fill:#d37e92; stroke:none;" d="M439.333 225.667L439.667 226.333L439.333 225.667M201 226L202 227L201 226z"/>
<path style="fill:#bd667b; stroke:none;" d="M220.333 226.667L220.667 227.333L220.333 226.667z"/>
<path style="fill:#b4415b; stroke:none;" d="M201 227L202 228L201 227z"/>
<path style="fill:#bd667b; stroke:none;" d="M431 227L432 228L431 227z"/>
<path style="fill:#b4415b; stroke:none;" d="M439 227L439 233L440 233L439 227M82 228L83 229L82 228z"/>
<path style="fill:#d37e92; stroke:none;" d="M201.333 228.667L201.667 229.333L201.333 228.667z"/>
<path style="fill:#b4415b; stroke:none;" d="M220.333 228.667L220.667 229.333L220.333 228.667z"/>
<path style="fill:#bd667b; stroke:none;" d="M82.3333 229.667L82.6667 230.333L82.3333 229.667M400 229L401 230L400 229M344 230L345 231L344 230z"/>
<path style="fill:#b4415b; stroke:none;" d="M400 230L401 231L400 230M82 231L82 236L83 236L82 231z"/>
<path style="fill:#c50236; stroke:none;" d="M344 231C341.112 236.147 336.132 235.177 332.34 239.148C328.821 242.833 325.289 252.993 334.004 251.752C342.288 250.573 346.953 238.054 344 231z"/>
<path style="fill:#d37e92; stroke:none;" d="M345 231L346 232L345 231z"/>
<path style="fill:#b4415b; stroke:none;" d="M430.333 231.667L430.667 232.333L430.333 231.667M343 232L344 233L343 232M345 232L345 236L346 236L345 232M399 233L400 234L399 233z"/>
<path style="fill:#bd667b; stroke:none;" d="M430 233L431 234L430 233M439 233L440 234L439 233M221 234L222 235L221 234z"/>
<path style="fill:#b4415b; stroke:none;" d="M342 234L343 235L342 234z"/>
<path style="fill:#d37e92; stroke:none;" d="M434.333 234.667L434.667 235.333L434.333 234.667M439.333 234.667L439.667 235.333L439.333 234.667z"/>
<path style="fill:#b4415b; stroke:none;" d="M341 235L342 236L341 235z"/>
<path style="fill:#bd667b; stroke:none;" d="M82 236L83 237L82 236M202.333 236.667L202.667 237.333L202.333 236.667z"/>
<path style="fill:#b4415b; stroke:none;" d="M334 236L335 237L334 236z"/>
<path style="fill:#bd667b; stroke:none;" d="M345 236L346 237L345 236z"/>
<path style="fill:#b4415b; stroke:none;" d="M398 236L399 237L398 236M434.333 236.667L434.667 237.333L434.333 236.667z"/>
<path style="fill:#d37e92; stroke:none;" d="M82 237L82 241L83 241L82 237z"/>
<path style="fill:#b4415b; stroke:none;" d="M333 237L334 238L333 237M332 238L333 239L332 238M397 238L398 239L397 238M429 238L430 239L429 238M438 238L439 239L438 238M222 239L223 240L222 239M331 239L332 240L331 239M344.333 239.667L344.667 240.333L344.333 239.667z"/>
<path style="fill:#bd667b; stroke:none;" d="M438 239L438 242L439 242L438 239z"/>
<path style="fill:#b4415b; stroke:none;" d="M396 240L397 241L396 240M428 240L429 241L428 240z"/>
<path style="fill:#d37e92; stroke:none;" d="M433 240L434 241L433 240z"/>
<path style="fill:#b4415b; stroke:none;" d="M330 241L331 242L330 241M433 241L434 242L433 241M203.333 242.667L203.667 243.333L203.333 242.667z"/>
<path style="fill:#d37e92; stroke:none;" d="M425 242L426 243L425 242z"/>
<path style="fill:#b4415b; stroke:none;" d="M223.333 243.667L223.667 244.333L223.333 243.667z"/>
<path style="fill:#d37e92; stroke:none;" d="M343 243L344 244L343 243z"/>
<path style="fill:#b4415b; stroke:none;" d="M394 243L395 244L394 243M437.333 243.667L437.667 244.333L437.333 243.667z"/>
<path style="fill:#d37e92; stroke:none;" d="M203 244L203 248L204 248L203 244z"/>
<path style="fill:#b4415b; stroke:none;" d="M342 244L343 245L342 244M393 244L394 245L393 244M423 244L424 245L423 244z"/>
<path style="fill:#d37e92; stroke:none;" d="M432 244L433 245L432 244z"/>
<path style="fill:#b4415b; stroke:none;" d="M328 245L329 246L328 245z"/>
<path style="fill:#d37e92; stroke:none;" d="M342 245L343 246L342 245z"/>
<path style="fill:#b4415b; stroke:none;" d="M422 245L423 246L422 245M432.333 245.667L432.667 246.333L432.333 245.667z"/>
<path style="fill:#bd667b; stroke:none;" d="M437 245L438 246L437 245M224 246L225 247L224 246z"/>
<path style="fill:#b4415b; stroke:none;" d="M341 246L342 247L341 246M224 247L225 248L224 247M391 247L392 248L391 247M421 247L422 248L421 247z"/>
<path style="fill:#bd667b; stroke:none;" d="M431.333 248.667L431.667 249.333L431.333 248.667z"/>
<path style="fill:#b4415b; stroke:none;" d="M436 248L437 249L436 248M204.333 249.667L204.667 250.333L204.333 249.667z"/>
<path style="fill:#d37e92; stroke:none;" d="M225 249L226 250L225 249z"/>
<path style="fill:#b4415b; stroke:none;" d="M339 249L340 250L339 249M390 249L391 250L390 249z"/>
<path style="fill:#bd667b; stroke:none;" d="M420 249L421 250L420 249z"/>
<path style="fill:#d37e92; stroke:none;" d="M436 249L437 250L436 249M82.3333 250.667L82.6667 251.333L82.3333 250.667z"/>
<path style="fill:#b4415b; stroke:none;" d="M225 250L226 251L225 250M431 250L432 251L431 250z"/>
<path style="fill:#bd667b; stroke:none;" d="M204 251L204 254L205 254L204 251z"/>
<path style="fill:#b4415b; stroke:none;" d="M336 251L337 252L336 251z"/>
<path style="fill:#bd667b; stroke:none;" d="M82 252L83 253L82 252z"/>
<path style="fill:#b4415b; stroke:none;" d="M226 252L227 253L226 252z"/>
<path style="fill:#bd667b; stroke:none;" d="M330 252L331 253L330 252z"/>
<path style="fill:#b4415b; stroke:none;" d="M331 252L331 253L335 253L331 252z"/>
<path style="fill:#d37e92; stroke:none;" d="M430 252L431 253L430 252z"/>
<path style="fill:#bd667b; stroke:none;" d="M435 252L436 253L435 252z"/>
<path style="fill:#b4415b; stroke:none;" d="M82 253L82 256L83 256L82 253M388 253L389 254L388 253M418 253L419 254L418 253M430 253L431 254L430 253z"/>
<path style="fill:#d37e92; stroke:none;" d="M435 253L436 254L435 253z"/>
<path style="fill:#bd667b; stroke:none;" d="M227 254L228 255L227 254z"/>
<path style="fill:#d37e92; stroke:none;" d="M418 254L419 255L418 254z"/>
<path style="fill:#b4415b; stroke:none;" d="M434 254L435 255L434 254M227 255L228 256L227 255M387 255L388 256L387 255z"/>
<path style="fill:#d37e92; stroke:none;" d="M429 255L430 256L429 255z"/>
<path style="fill:#bd667b; stroke:none;" d="M434 255L435 256L434 255M82 256L83 257L82 256M228 256L229 257L228 256z"/>
<path style="fill:#b4415b; stroke:none;" d="M417 256L418 257L417 256M429 256L430 257L429 256z"/>
<path style="fill:#d37e92; stroke:none;" d="M434 256L435 257L434 256z"/>
<path style="fill:#b4415b; stroke:none;" d="M82 257L83 258L82 257M205 257L205 260L206 260L205 257M228 257L229 258L228 257M433.333 257.667L433.667 258.333L433.333 257.667M54 258L54 276L55 276L54 258z"/>
<path style="fill:#d37e92; stroke:none;" d="M229 258L230 259L229 258z"/>
<path style="fill:#bd667b; stroke:none;" d="M386 258L387 259L386 258z"/>
<path style="fill:#b4415b; stroke:none;" d="M416 258L417 259L416 258z"/>
<path style="fill:#d37e92; stroke:none;" d="M428 258L429 259L428 258z"/>
<path style="fill:#b4415b; stroke:none;" d="M229 259L230 260L229 259M386.333 259.667L386.667 260.333L386.333 259.667M428 259L429 260L428 259z"/>
<path style="fill:#d37e92; stroke:none;" d="M433 259L434 260L433 259z"/>
<path style="fill:#b4415b; stroke:none;" d="M415 261L416 262L415 261z"/>
<path style="fill:#bd667b; stroke:none;" d="M427 261L428 262L427 261z"/>
<path style="fill:#b4415b; stroke:none;" d="M432 261L433 262L432 261z"/>
<path style="fill:#bd667b; stroke:none;" d="M231 262L232 263L231 262z"/>
<path style="fill:#d37e92; stroke:none;" d="M293 262L294 263L293 262z"/>
<path style="fill:#b4415b; stroke:none;" d="M294 262L294 263L297 263L294 262z"/>
<path style="fill:#c50236; stroke:none;" d="M288 264C291.532 270.731 308.235 272.067 311 264L288 264z"/>
<path style="fill:#b4415b; stroke:none;" d="M298 262L299 263L298 262M300 262L300 263L304 263L300 262z"/>
<path style="fill:#bd667b; stroke:none;" d="M304 262L305 263L304 262z"/>
<path style="fill:#d37e92; stroke:none;" d="M305.667 262.333L306.333 262.667L305.667 262.333z"/>
<path style="fill:#b4415b; stroke:none;" d="M385 262L386 263L385 262M414 262L415 263L414 262M427.333 262.667L427.667 263.333L427.333 262.667z"/>
<path style="fill:#d37e92; stroke:none;" d="M432 262L433 263L432 262z"/>
<path style="fill:#b4415b; stroke:none;" d="M289.667 263.333L290.333 263.667L289.667 263.333M308.667 263.333L309.333 263.667L308.667 263.333z"/>
<path style="fill:#d37e92; stroke:none;" d="M310 263L311 264L310 263z"/>
<path style="fill:#b4415b; stroke:none;" d="M206 264L207 265L206 264z"/>
<path style="fill:#bd667b; stroke:none;" d="M232 264L233 265L232 264M311 264L312 265L311 264z"/>
<path style="fill:#b4415b; stroke:none;" d="M413 264L414 265L413 264z"/>
<path style="fill:#d37e92; stroke:none;" d="M426.333 264.667L426.667 265.333L426.333 264.667M431 264L432 265L431 264M83 265L84 266L83 265z"/>
<path style="fill:#bd667b; stroke:none;" d="M287 265L288 266L287 265z"/>
<path style="fill:#b4415b; stroke:none;" d="M311 265L312 266L311 265M383 265L384 266L383 265z"/>
<path style="fill:#bd667b; stroke:none;" d="M83 266L84 267L83 266z"/>
<path style="fill:#b4415b; stroke:none;" d="M233 266L234 267L233 266M288 266L289 267L288 266z"/>
<path style="fill:#bd667b; stroke:none;" d="M426 266L427 267L426 266M430 266L431 267L430 266z"/>
<path style="fill:#d37e92; stroke:none;" d="M83 267L84 268L83 267z"/>
<path style="fill:#bd667b; stroke:none;" d="M289 267L290 268L289 267z"/>
<path style="fill:#b4415b; stroke:none;" d="M309 267L310 268L309 267M429 267L430 268L429 267z"/>
<path style="fill:#bd667b; stroke:none;" d="M83 268L84 269L83 268z"/>
<path style="fill:#b4415b; stroke:none;" d="M291 268L292 269L291 268M307 268L308 269L307 268M409 268L410 269L409 268z"/>
<path style="fill:#bd667b; stroke:none;" d="M429 268L430 269L429 268M207 269L208 270L207 269z"/>
<path style="fill:#b4415b; stroke:none;" d="M235 269L236 270L235 269M294 269L294 270L304 270L294 269z"/>
<path style="fill:#bd667b; stroke:none;" d="M304 269L305 270L304 269z"/>
<path style="fill:#b4415b; stroke:none;" d="M380 269L381 270L380 269M406 269L407 270L406 269M428 269L429 270L428 269M379 270L380 271L379 270M405 270L406 271L405 270M378 271L379 272L378 271z"/>
<path style="fill:#bd667b; stroke:none;" d="M427 271L428 272L427 271z"/>
<path style="fill:#b4415b; stroke:none;" d="M208 272L209 273L208 272M237 272L238 273L237 272M377 272L378 273L377 272M404 272L405 273L404 272z"/>
<path style="fill:#bd667b; stroke:none;" d="M238 273L239 274L238 273z"/>
<path style="fill:#b4415b; stroke:none;" d="M376 273L377 274L376 273z"/>
<path style="fill:#bd667b; stroke:none;" d="M199 274L199 275L202 275L199 274z"/>
<path style="fill:#b4415b; stroke:none;" d="M209.333 274.667L209.667 275.333L209.333 274.667z"/>
<path style="fill:#bd667b; stroke:none;" d="M375 274L376 275L375 274z"/>
<path style="fill:#b4415b; stroke:none;" d="M403 274L404 275L403 274M198 275L199 276L198 275M374 275L375 276L374 275z"/>
<path style="fill:#d37e92; stroke:none;" d="M54 276L54 281L55 281L54 276M84 276L85 277L84 276z"/>
<path style="fill:#b4415b; stroke:none;" d="M197 276L198 277L197 276M373 276L374 277L373 276z"/>
<path style="fill:#bd667b; stroke:none;" d="M402 276L403 277L402 276z"/>
<path style="fill:#b4415b; stroke:none;" d="M84 277L84 281L85 281L84 277M210 277L211 278L210 277M241 277L242 278L241 277z"/>
<path style="fill:#d37e92; stroke:none;" d="M204 278L205 279L204 278z"/>
<path style="fill:#b4415b; stroke:none;" d="M242 278L243 279L242 278M204 279L205 280L204 279M211.333 279.667L211.667 280.333L211.333 279.667z"/>
<path style="fill:#bd667b; stroke:none;" d="M243 279L244 280L243 279M369 279L370 280L369 279M401 279L402 280L401 279z"/>
<path style="fill:#d37e92; stroke:none;" d="M205 280L206 281L205 280z"/>
<path style="fill:#b4415b; stroke:none;" d="M368 280L369 281L368 280M197.333 281.667L197.667 282.333L197.333 281.667z"/>
<path style="fill:#d37e92; stroke:none;" d="M206 281L207 282L206 281z"/>
<path style="fill:#b4415b; stroke:none;" d="M400.333 281.667L400.667 282.333L400.333 281.667z"/>
<path style="fill:#d37e92; stroke:none;" d="M85 282L86 283L85 282z"/>
<path style="fill:#b4415b; stroke:none;" d="M208.667 282.333L209.333 282.667L208.667 282.333z"/>
<path style="fill:#bd667b; stroke:none;" d="M365 282L366 283L365 282M85 283L85 286L86 286L85 283z"/>
<path style="fill:#b4415b; stroke:none;" d="M217 283L218 284L217 283z"/>
<path style="fill:#bd667b; stroke:none;" d="M247 283L248 284L247 283z"/>
<path style="fill:#b4415b; stroke:none;" d="M364 283L365 284L364 283M198 284L199 285L198 284z"/>
<path style="fill:#010101; stroke:none;" d="M217 284C220.917 291.862 228.103 298.242 236 302C233.057 294.403 225.067 285.918 217 284z"/>
<path style="fill:#b4415b; stroke:none;" d="M220 284L221 285L220 284z"/>
<path style="fill:#bd667b; stroke:none;" d="M248 284L249 285L248 284z"/>
<path style="fill:#b4415b; stroke:none;" d="M362 284L363 285L362 284M395 284L396 285L395 284z"/>
<path style="fill:#bd667b; stroke:none;" d="M217 285L218 286L217 285z"/>
<path style="fill:#b4415b; stroke:none;" d="M221 285L222 286L221 285M249 285L250 286L249 285M360.667 285.333L361.333 285.667L360.667 285.333z"/>
<path style="fill:#bd667b; stroke:none;" d="M394 285L395 286L394 285z"/>
<path style="fill:#b4415b; stroke:none;" d="M85 286L86 287L85 286M250 286L251 287L250 286z"/>
<path style="fill:#d37e92; stroke:none;" d="M356 286L357 287L356 286z"/>
<path style="fill:#b4415b; stroke:none;" d="M200 287L201 288L200 287M251 287L252 288L251 287z"/>
<path style="fill:#d37e92; stroke:none;" d="M353 287L354 288L353 287z"/>
<path style="fill:#b4415b; stroke:none;" d="M354 287L355 288L354 287M391 287L392 288L391 287M219 288L220 289L219 288M225 288L226 289L225 288z"/>
<path style="fill:#d37e92; stroke:none;" d="M351 288L352 289L351 288z"/>
<path style="fill:#b4415b; stroke:none;" d="M352 288L353 289L352 288z"/>
<path style="fill:#d37e92; stroke:none;" d="M390 288L391 289L390 288z"/>
<path style="fill:#bd667b; stroke:none;" d="M55 289L56 290L55 289z"/>
<path style="fill:#d37e92; stroke:none;" d="M86.3333 289.667L86.6667 290.333L86.3333 289.667z"/>
<path style="fill:#b4415b; stroke:none;" d="M220 289L221 290L220 289M226 289L227 290L226 289z"/>
<path style="fill:#bd667b; stroke:none;" d="M254 289L255 290L254 289z"/>
<path style="fill:#b4415b; stroke:none;" d="M350 289L351 290L350 289z"/>
<path style="fill:#d37e92; stroke:none;" d="M55.3333 290.667L55.6667 291.333L55.3333 290.667z"/>
<path style="fill:#b4415b; stroke:none;" d="M202 290L203 291L202 290M227 290L228 291L227 290z"/>
<path style="fill:#d37e92; stroke:none;" d="M348 290L349 291L348 290z"/>
<path style="fill:#b4415b; stroke:none;" d="M86 291L87 292L86 291M203 291L204 292L203 291M228 291L229 292L228 291M347 291L348 292L347 291M204 292L205 293L204 292M229 292L230 293L229 292M258 292L259 293L258 292z"/>
<path style="fill:#bd667b; stroke:none;" d="M345 292L346 293L345 292z"/>
<path style="fill:#b4415b; stroke:none;" d="M385 292L386 293L385 292M230 293L231 294L230 293M259 293L260 294L259 293M344 293L345 294L344 293M384 293L385 294L384 293z"/>
<path style="fill:#d37e92; stroke:none;" d="M87 294L88 295L87 294z"/>
<path style="fill:#b4415b; stroke:none;" d="M225 294L226 295L225 294M261 294L262 295L261 294M343 294L344 295L343 294M383 294L384 295L383 294M87 295L88 296L87 295z"/>
<path style="fill:#bd667b; stroke:none;" d="M206 295L207 296L206 295z"/>
<path style="fill:#b4415b; stroke:none;" d="M226 295L227 296L226 295z"/>
<path style="fill:#bd667b; stroke:none;" d="M263 295L264 296L263 295M341 295L342 296L341 295z"/>
<path style="fill:#b4415b; stroke:none;" d="M382 295L383 296L382 295M56 296L57 297L56 296M227 296L228 297L227 296M264 296L265 297L264 296z"/>
<path style="fill:#d37e92; stroke:none;" d="M265 296L266 297L265 296z"/>
<path style="fill:#b4415b; stroke:none;" d="M340 296L341 297L340 296z"/>
<path style="fill:#bd667b; stroke:none;" d="M381 296L382 297L381 296z"/>
<path style="fill:#d37e92; stroke:none;" d="M56.3333 297.667L56.6667 298.333L56.3333 297.667z"/>
<path style="fill:#b4415b; stroke:none;" d="M266 297L267 298L266 297z"/>
<path style="fill:#d37e92; stroke:none;" d="M267 297L268 298L267 297z"/>
<path style="fill:#b4415b; stroke:none;" d="M338 297L339 298L338 297z"/>
<path style="fill:#bd667b; stroke:none;" d="M380 297L381 298L380 297z"/>
<path style="fill:#d37e92; stroke:none;" d="M88 298L89 299L88 298z"/>
<path style="fill:#b4415b; stroke:none;" d="M210 298L211 299L210 298M234 298L235 299L234 298M268 298L269 299L268 298z"/>
<path style="fill:#d37e92; stroke:none;" d="M269 298L270 299L269 298z"/>
<path style="fill:#b4415b; stroke:none;" d="M336 298L337 299L336 298M88.3333 299.667L88.6667 300.333L88.3333 299.667z"/>
<path style="fill:#bd667b; stroke:none;" d="M211 299L212 300L211 299M231 299L232 300L231 299z"/>
<path style="fill:#b4415b; stroke:none;" d="M235 299L236 300L235 299M270 299L271 300L270 299z"/>
<path style="fill:#d37e92; stroke:none;" d="M271 299L272 300L271 299z"/>
<path style="fill:#bd667b; stroke:none;" d="M333 299L334 300L333 299z"/>
<path style="fill:#b4415b; stroke:none;" d="M377 299L378 300L377 299M214.667 300.333L215.333 300.667L214.667 300.333z"/>
<path style="fill:#bd667b; stroke:none;" d="M216 300L217 301L216 300z"/>
<path style="fill:#d37e92; stroke:none;" d="M217.667 300.333L218.333 300.667L217.667 300.333z"/>
<path style="fill:#bd667b; stroke:none;" d="M219 300L220 301L219 300z"/>
<path style="fill:#b4415b; stroke:none;" d="M220 300L221 301L220 300M232 300L233 301L232 300z"/>
<path style="fill:#bd667b; stroke:none;" d="M273 300L274 301L273 300z"/>
<path style="fill:#b4415b; stroke:none;" d="M331 300L332 301L331 300M376 300L377 301L376 300M57 301L58 302L57 301z"/>
<path style="fill:#d37e92; stroke:none;" d="M221 301L222 302L221 301z"/>
<path style="fill:#b4415b; stroke:none;" d="M234 301L235 302L234 301z"/>
<path style="fill:#bd667b; stroke:none;" d="M236 301L237 302L236 301z"/>
<path style="fill:#b4415b; stroke:none;" d="M275.667 301.333L276.333 301.667L275.667 301.333M328 301L329 302L328 301M375 301L376 302L375 301z"/>
<path style="fill:#bd667b; stroke:none;" d="M57.3333 302.667L57.6667 303.333L57.3333 302.667M89 302L90 303L89 302z"/>
<path style="fill:#b4415b; stroke:none;" d="M278 302L279 303L278 302z"/>
<path style="fill:#bd667b; stroke:none;" d="M279 302L280 303L279 302z"/>
<path style="fill:#b4415b; stroke:none;" d="M325 302L326 303L325 302M89 303L90 304L89 303M224 303L225 304L224 303M282 303L283 304L282 303z"/>
<path style="fill:#d37e92; stroke:none;" d="M283 303L284 304L283 303z"/>
<path style="fill:#bd667b; stroke:none;" d="M321 303L322 304L321 303z"/>
<path style="fill:#b4415b; stroke:none;" d="M322 303L323 304L322 303M372 303L373 304L372 303M225 304L226 305L225 304M286 304L287 305L286 304z"/>
<path style="fill:#bd667b; stroke:none;" d="M287 304L288 305L287 304z"/>
<path style="fill:#d37e92; stroke:none;" d="M316 304L317 305L316 304z"/>
<path style="fill:#bd667b; stroke:none;" d="M317 304L318 305L317 304z"/>
<path style="fill:#b4415b; stroke:none;" d="M318 304L319 305L318 304z"/>
<path style="fill:#bd667b; stroke:none;" d="M371 304L372 305L371 304z"/>
<path style="fill:#b4415b; stroke:none;" d="M58 305L58 308L59 308L58 305z"/>
<path style="fill:#d37e92; stroke:none;" d="M90 305L91 306L90 305z"/>
<path style="fill:#b4415b; stroke:none;" d="M291 305L291 306L294 306L291 305z"/>
<path style="fill:#bd667b; stroke:none;" d="M294 305L294 306L299 306L294 305z"/>
<path style="fill:#d37e92; stroke:none;" d="M299 305L300 306L299 305z"/>
<path style="fill:#bd667b; stroke:none;" d="M301 305L302 306L301 305z"/>
<path style="fill:#d37e92; stroke:none;" d="M302 305L303 306L302 305M304 305L305 306L304 305z"/>
<path style="fill:#bd667b; stroke:none;" d="M305 305L305 306L309 306L305 305z"/>
<path style="fill:#b4415b; stroke:none;" d="M309 305L309 306L314 306L309 305M90 306L91 307L90 306z"/>
<path style="fill:#bd667b; stroke:none;" d="M368 306L369 307L368 306z"/>
<path style="fill:#b4415b; stroke:none;" d="M366 307L367 308L366 307z"/>
<path style="fill:#d37e92; stroke:none;" d="M91 308L92 309L91 308z"/>
<path style="fill:#b4415b; stroke:none;" d="M364 308L365 309L364 308M91 309L92 310L91 309M230 309L231 310L230 309z"/>
<path style="fill:#d37e92; stroke:none;" d="M363 309L364 310L363 309z"/>
<path style="fill:#b4415b; stroke:none;" d="M59 310L60 311L59 310M231 310L232 311L231 310z"/>
<path style="fill:#d37e92; stroke:none;" d="M361 310L362 311L361 310M59 311L60 312L59 311z"/>
<path style="fill:#b4415b; stroke:none;" d="M92 311L93 312L92 311M232 311L233 312L232 311M358.667 311.333L359.333 311.667L358.667 311.333M356 312L357 313L356 312z"/>
<path style="fill:#bd667b; stroke:none;" d="M357 312L358 313L357 312z"/>
<path style="fill:#b4415b; stroke:none;" d="M60 313L61 314L60 313z"/>
<path style="fill:#bd667b; stroke:none;" d="M93 313L94 314L93 313z"/>
<path style="fill:#b4415b; stroke:none;" d="M235 313L236 314L235 313M354 313L355 314L354 313z"/>
<path style="fill:#d37e92; stroke:none;" d="M355 313L356 314L355 313z"/>
<path style="fill:#bd667b; stroke:none;" d="M60 314L61 315L60 314z"/>
<path style="fill:#b4415b; stroke:none;" d="M93 314L94 315L93 314z"/>
<path style="fill:#d37e92; stroke:none;" d="M353 314L354 315L353 314M60 315L61 316L60 315M94 315L95 316L94 315z"/>
<path style="fill:#bd667b; stroke:none;" d="M350 315L351 316L350 315z"/>
<path style="fill:#b4415b; stroke:none;" d="M94 316L95 317L94 316z"/>
<path style="fill:#bd667b; stroke:none;" d="M239 316L240 317L239 316z"/>
<path style="fill:#b4415b; stroke:none;" d="M347 316L348 317L347 316z"/>
<path style="fill:#bd667b; stroke:none;" d="M348 316L349 317L348 316z"/>
<path style="fill:#b4415b; stroke:none;" d="M61 317L62 318L61 317M95 317L96 318L95 317M241 317L242 318L241 317M344 317L345 318L344 317z"/>
<path style="fill:#d37e92; stroke:none;" d="M345 317L346 318L345 317z"/>
<path style="fill:#bd667b; stroke:none;" d="M61 318L62 319L61 318z"/>
<path style="fill:#b4415b; stroke:none;" d="M341 318L342 319L341 318z"/>
<path style="fill:#d37e92; stroke:none;" d="M342 318L343 319L342 318z"/>
<path style="fill:#b4415b; stroke:none;" d="M96 319L97 320L96 319z"/>
<path style="fill:#d37e92; stroke:none;" d="M244 319L245 320L244 319z"/>
<path style="fill:#b4415b; stroke:none;" d="M337 319L338 320L337 319z"/>
<path style="fill:#bd667b; stroke:none;" d="M338 319L339 320L338 319z"/>
<path style="fill:#b4415b; stroke:none;" d="M62 320L63 321L62 320z"/>
<path style="fill:#d37e92; stroke:none;" d="M97 320L98 321L97 320z"/>
<path style="fill:#bd667b; stroke:none;" d="M246 320L247 321L246 320z"/>
<path style="fill:#b4415b; stroke:none;" d="M247 320L248 321L247 320M332.667 320.333L333.333 320.667L332.667 320.333z"/>
<path style="fill:#bd667b; stroke:none;" d="M334 320L335 321L334 320M62 321L63 322L62 321z"/>
<path style="fill:#d37e92; stroke:none;" d="M248 321L249 322L248 321z"/>
<path style="fill:#b4415b; stroke:none;" d="M249 321L250 322L249 321M328 321L329 322L328 321z"/>
<path style="fill:#d37e92; stroke:none;" d="M329 321L330 322L329 321M250 322L251 323L250 322z"/>
<path style="fill:#b4415b; stroke:none;" d="M322 322L323 323L322 322z"/>
<path style="fill:#bd667b; stroke:none;" d="M323 322L324 323L323 322z"/>
<path style="fill:#b4415b; stroke:none;" d="M63 323L64 324L63 323z"/>
<path style="fill:#d37e92; stroke:none;" d="M252 323L253 324L252 323z"/>
<path style="fill:#b4415b; stroke:none;" d="M301 323L301 324L315 324L301 323z"/>
<path style="fill:#d37e92; stroke:none;" d="M63 324L64 325L63 324z"/>
<path style="fill:#bd667b; stroke:none;" d="M254 324L255 325L254 324z"/>
<path style="fill:#b4415b; stroke:none;" d="M255 324L256 325L255 324M284 324L284 325L290 325L284 324z"/>
<path style="fill:#bd667b; stroke:none;" d="M290 324L291 325L290 324z"/>
<path style="fill:#d37e92; stroke:none;" d="M102 325L103 326L102 325z"/>
<path style="fill:#bd667b; stroke:none;" d="M257 325L258 326L257 325z"/>
<path style="fill:#b4415b; stroke:none;" d="M282 325L283 326L282 325M64 326L65 327L64 326M103 326L104 327L103 326z"/>
<path style="fill:#bd667b; stroke:none;" d="M259 326L260 327L259 326M282 326L283 327L282 326z"/>
<path style="fill:#d37e92; stroke:none;" d="M64 327L65 328L64 327z"/>
<path style="fill:#b4415b; stroke:none;" d="M104 327L105 328L104 327M262 327L263 328L262 327M283 327L284 328L283 327z"/>
<path style="fill:#bd667b; stroke:none;" d="M284 327L285 328L284 327z"/>
<path style="fill:#b4415b; stroke:none;" d="M265 328L266 329L265 328M287 328L288 329L287 328z"/>
<path style="fill:#bd667b; stroke:none;" d="M288 328L289 329L288 328z"/>
<path style="fill:#d37e92; stroke:none;" d="M289 328L290 329L289 328z"/>
<path style="fill:#b4415b; stroke:none;" d="M65 329L66 330L65 329z"/>
<path style="fill:#d37e92; stroke:none;" d="M107 329L108 330L107 329z"/>
<path style="fill:#bd667b; stroke:none;" d="M267 329L268 330L267 329z"/>
<path style="fill:#b4415b; stroke:none;" d="M268 329L269 330L268 329M293.667 329.333L294.333 329.667L293.667 329.333z"/>
<path style="fill:#bd667b; stroke:none;" d="M295 329L296 330L295 329z"/>
<path style="fill:#d37e92; stroke:none;" d="M296.667 329.333L297.333 329.667L296.667 329.333z"/>
<path style="fill:#bd667b; stroke:none;" d="M65 330L66 331L65 330z"/>
<path style="fill:#d37e92; stroke:none;" d="M270 330L271 331L270 330z"/>
<path style="fill:#b4415b; stroke:none;" d="M271 330L272 331L271 330M301 330L301 331L305 331L301 330z"/>
<path style="fill:#bd667b; stroke:none;" d="M305 330L305 331L312 331L305 330z"/>
<path style="fill:#b4415b; stroke:none;" d="M66.3333 331.667L66.6667 332.333L66.3333 331.667z"/>
<path style="fill:#bd667b; stroke:none;" d="M274 331L275 332L274 331z"/>
<path style="fill:#b4415b; stroke:none;" d="M316 331L316 332L320 332L316 331M109 332L110 333L109 332z"/>
<path style="fill:#d37e92; stroke:none;" d="M277 332L278 333L277 332z"/>
<path style="fill:#b4415b; stroke:none;" d="M278.667 332.333L279.333 332.667L278.667 332.333M110 333L111 334L110 333z"/>
<path style="fill:#bd667b; stroke:none;" d="M281.667 333.333L282.333 333.667L281.667 333.333z"/>
<path style="fill:#b4415b; stroke:none;" d="M283.667 333.333L284.333 333.667L283.667 333.333M314 333L315 334L314 333z"/>
<path style="fill:#bd667b; stroke:none;" d="M315 333L316 334L315 333z"/>
<path style="fill:#d37e92; stroke:none;" d="M316 333L317 334L316 333z"/>
<path style="fill:#b4415b; stroke:none;" d="M67 334L68 335L67 334M111 334L112 335L111 334z"/>
<path style="fill:#d37e92; stroke:none;" d="M286 334L287 335L286 334z"/>
<path style="fill:#bd667b; stroke:none;" d="M287 334L288 335L287 334z"/>
<path style="fill:#b4415b; stroke:none;" d="M288 334L289 335L288 334z"/>
<path style="fill:#bd667b; stroke:none;" d="M312 334L313 335L312 334z"/>
<path style="fill:#d37e92; stroke:none;" d="M313 334L314 335L313 334z"/>
<path style="fill:#bd667b; stroke:none;" d="M67 335L68 336L67 335M112 335L113 336L112 335z"/>
<path style="fill:#d37e92; stroke:none;" d="M293 335L294 336L293 335z"/>
<path style="fill:#bd667b; stroke:none;" d="M294 335L295 336L294 335z"/>
<path style="fill:#d37e92; stroke:none;" d="M295 335L296 336L295 335z"/>
<path style="fill:#b4415b; stroke:none;" d="M296 335L297 336L296 335z"/>
<path style="fill:#bd667b; stroke:none;" d="M307 335L308 336L307 335z"/>
<path style="fill:#d37e92; stroke:none;" d="M308 335L309 336L308 335z"/>
<path style="fill:#b4415b; stroke:none;" d="M68 337L69 338L68 337M114 338L115 339L114 338M69 339L70 340L69 339z"/>
<path style="fill:#d37e92; stroke:none;" d="M115 339L116 340L115 339z"/>
<path style="fill:#bd667b; stroke:none;" d="M69 340L70 341L69 340z"/>
<path style="fill:#b4415b; stroke:none;" d="M116 341L117 342L116 341M70 342L71 343L70 342z"/>
<path style="fill:#bd667b; stroke:none;" d="M117 342L118 343L117 342M118 344L119 345L118 344z"/>
<path style="fill:#b4415b; stroke:none;" d="M71 345L72 346L71 345z"/>
<path style="fill:#bd667b; stroke:none;" d="M119 346L120 347L119 346z"/>
<path style="fill:#b4415b; stroke:none;" d="M72 347L73 348L72 347z"/>
<path style="fill:#d37e92; stroke:none;" d="M120 348L121 349L120 348z"/>
<path style="fill:#b4415b; stroke:none;" d="M73 349L74 350L73 349M74 351L75 352L74 351z"/>
<path style="fill:#d37e92; stroke:none;" d="M121.333 351.667L121.667 352.333L121.333 351.667z"/>
<path style="fill:#bd667b; stroke:none;" d="M74 352L75 353L74 352z"/>
<path style="fill:#b4415b; stroke:none;" d="M75.3333 353.667L75.6667 354.333L75.3333 353.667M119 354L120 355L119 354z"/>
<path style="fill:#bd667b; stroke:none;" d="M120 354L121 355L120 354z"/>
<path style="fill:#d37e92; stroke:none;" d="M118 355L119 356L118 355z"/>
<path style="fill:#bd667b; stroke:none;" d="M76 356L77 357L76 356z"/>
<path style="fill:#b4415b; stroke:none;" d="M117.333 356.667L117.667 357.333L117.333 356.667z"/>
<path style="fill:#bd667b; stroke:none;" d="M77 358L78 359L77 358z"/>
<path style="fill:#b4415b; stroke:none;" d="M78 360L79 361L78 360z"/>
<path style="fill:#bd667b; stroke:none;" d="M118 360L119 361L118 360z"/>
<path style="fill:#b4415b; stroke:none;" d="M79 362L80 363L79 362z"/>
<path style="fill:#bd667b; stroke:none;" d="M119 362L120 363L119 362z"/>
<path style="fill:#b4415b; stroke:none;" d="M80 364L81 365L80 364z"/>
<path style="fill:#bd667b; stroke:none;" d="M120 364L121 365L120 364M81 366L82 367L81 366M121 366L122 367L121 366z"/>
<path style="fill:#b4415b; stroke:none;" d="M82 368L83 369L82 368z"/>
<path style="fill:#bd667b; stroke:none;" d="M122 368L123 369L122 368M83 370L84 371L83 370M123 370L124 371L123 370z"/>
<path style="fill:#b4415b; stroke:none;" d="M123 371L124 372L123 371z"/>
<path style="fill:#d37e92; stroke:none;" d="M84 372L85 373L84 372M124 372L125 373L124 372z"/>
<path style="fill:#b4415b; stroke:none;" d="M124 373L125 374L124 373M86 375L87 376L86 375M125 375L126 376L125 375M87 377L88 378L87 377M126 377L127 378L126 377z"/>
<path style="fill:#bd667b; stroke:none;" d="M88 379L89 380L88 379z"/>
<path style="fill:#b4415b; stroke:none;" d="M127 379L128 380L127 379M89 380L90 381L89 380z"/>
<path style="fill:#d37e92; stroke:none;" d="M89 381L90 382L89 381M128 381L129 382L128 381z"/>
<path style="fill:#b4415b; stroke:none;" d="M90 382L91 383L90 382z"/>
<path style="fill:#d37e92; stroke:none;" d="M129 383L130 384L129 383M91 384L92 385L91 384z"/>
<path style="fill:#b4415b; stroke:none;" d="M92 385L93 386L92 385z"/>
<path style="fill:#bd667b; stroke:none;" d="M130 385L131 386L130 385z"/>
<path style="fill:#b4415b; stroke:none;" d="M93 387L94 388L93 387z"/>
<path style="fill:#bd667b; stroke:none;" d="M131 387L132 388L131 387z"/>
<path style="fill:#b4415b; stroke:none;" d="M131 388L132 389L131 388z"/>
<path style="fill:#bd667b; stroke:none;" d="M94 389L95 390L94 389z"/>
<path style="fill:#d37e92; stroke:none;" d="M132 389L133 390L132 389z"/>
<path style="fill:#b4415b; stroke:none;" d="M95 390L96 391L95 390M133 391L134 392L133 391z"/>
<path style="fill:#bd667b; stroke:none;" d="M96 392L97 393L96 392z"/>
<path style="fill:#b4415b; stroke:none;" d="M97 393L98 394L97 393M134 393L135 394L134 393z"/>
<path style="fill:#bd667b; stroke:none;" d="M135 394L136 395L135 394z"/>
<path style="fill:#d37e92; stroke:none;" d="M98 395L99 396L98 395z"/>
<path style="fill:#b4415b; stroke:none;" d="M99 396L100 397L99 396M136 396L137 397L136 396z"/>
<path style="fill:#d37e92; stroke:none;" d="M137 397L138 398L137 397M100 398L101 399L100 398z"/>
<path style="fill:#b4415b; stroke:none;" d="M101 399L102 400L101 399M138 399L139 400L138 399z"/>
<path style="fill:#d37e92; stroke:none;" d="M102 401L103 402L102 401z"/>
<path style="fill:#b4415b; stroke:none;" d="M103 402L104 403L103 402M140 402L141 403L140 402M104 403L105 404L104 403z"/>
<path style="fill:#d37e92; stroke:none;" d="M141 403L142 404L141 403z"/>
<path style="fill:#bd667b; stroke:none;" d="M105 405L106 406L105 405z"/>
<path style="fill:#b4415b; stroke:none;" d="M142 405L143 406L142 405M106 406L107 407L106 406z"/>
<path style="fill:#bd667b; stroke:none;" d="M143 406L144 407L143 406z"/>
<path style="fill:#b4415b; stroke:none;" d="M107 407L108 408L107 407M144 408L145 409L144 408M145 409L146 410L145 409z"/>
<path style="fill:#bd667b; stroke:none;" d="M109 410L110 411L109 410z"/>
<path style="fill:#b4415b; stroke:none;" d="M146 410L147 411L146 410z"/>
<path style="fill:#d37e92; stroke:none;" d="M147 411L148 412L147 411z"/>
<path style="fill:#b4415b; stroke:none;" d="M147 412L148 413L147 412M148 413L149 414L148 413z"/>
<path style="fill:#d37e92; stroke:none;" d="M112 414L113 415L112 414z"/>
<path style="fill:#bd667b; stroke:none;" d="M149 414L150 415L149 414z"/>
<path style="fill:#b4415b; stroke:none;" d="M113 415L114 416L113 415z"/>
<path style="fill:#d37e92; stroke:none;" d="M150 415L151 416L150 415z"/>
<path style="fill:#b4415b; stroke:none;" d="M114 416L115 417L114 416z"/>
<path style="fill:#d37e92; stroke:none;" d="M151 416L152 417L151 416z"/>
<path style="fill:#b4415b; stroke:none;" d="M152 418L153 419L152 418M116 419L117 420L116 419M153 419L154 420L153 419M117 420L118 421L117 420z"/>
<path style="fill:#bd667b; stroke:none;" d="M154 420L155 421L154 420z"/>
<path style="fill:#b4415b; stroke:none;" d="M118 421L119 422L118 421z"/>
<path style="fill:#d37e92; stroke:none;" d="M155 421L156 422L155 421z"/>
<path style="fill:#b4415b; stroke:none;" d="M119 422L120 423L119 422z"/>
<path style="fill:#d37e92; stroke:none;" d="M156 422L157 423L156 422z"/>
<path style="fill:#b4415b; stroke:none;" d="M120 423L121 424L120 423M121 424L122 425L121 424z"/>
<path style="fill:#bd667b; stroke:none;" d="M122 426L123 427L122 426M123 427L124 428L123 427M124 428L125 429L124 428z"/>
<path style="fill:#b4415b; stroke:none;" d="M161 428L162 429L161 428z"/>
<path style="fill:#bd667b; stroke:none;" d="M125 429L126 430L125 429z"/>
<path style="fill:#b4415b; stroke:none;" d="M162 429L163 430L162 429z"/>
<path style="fill:#bd667b; stroke:none;" d="M126 430L127 431L126 430z"/>
<path style="fill:#b4415b; stroke:none;" d="M163 430L164 431L163 430z"/>
<path style="fill:#bd667b; stroke:none;" d="M127 431L128 432L127 431z"/>
<path style="fill:#d37e92; stroke:none;" d="M165 431L166 432L165 431z"/>
<path style="fill:#bd667b; stroke:none;" d="M128 432L129 433L128 432z"/>
<path style="fill:#d37e92; stroke:none;" d="M166 432L167 433L166 432z"/>
<path style="fill:#b4415b; stroke:none;" d="M129 433L130 434L129 433M130 434L131 435L130 434M131 435L132 436L131 435M132 436L133 437L132 436M133 437L134 438L133 437M134 438L135 439L134 438z"/>
<path style="fill:#d37e92; stroke:none;" d="M172 438L173 439L172 438z"/>
<path style="fill:#b4415b; stroke:none;" d="M135 439L136 440L135 439z"/>
<path style="fill:#d37e92; stroke:none;" d="M173 439L174 440L173 439z"/>
<path style="fill:#b4415b; stroke:none;" d="M136 440L137 441L136 440z"/>
<path style="fill:#d37e92; stroke:none;" d="M174 440L175 441L174 440z"/>
<path style="fill:#bd667b; stroke:none;" d="M137 441L138 442L137 441z"/>
<path style="fill:#d37e92; stroke:none;" d="M175 441L176 442L175 441z"/>
<path style="fill:#bd667b; stroke:none;" d="M138 442L139 443L138 442M176 442L177 443L176 442M139 443L140 444L139 443M177 443L178 444L177 443M140 444L141 445L140 444M178 444L179 445L178 444M141 445L142 446L141 445z"/>
<path style="fill:#b4415b; stroke:none;" d="M179 445L180 446L179 445z"/>
<path style="fill:#bd667b; stroke:none;" d="M142 446L143 447L142 446z"/>
<path style="fill:#b4415b; stroke:none;" d="M144 447L145 448L144 447M145 448L146 449L145 448M146 449L147 450L146 449M147 450L148 451L147 450z"/>
<path style="fill:#d37e92; stroke:none;" d="M185 450L186 451L185 450z"/>
<path style="fill:#b4415b; stroke:none;" d="M148 451L149 452L148 451z"/>
<path style="fill:#bd667b; stroke:none;" d="M186 451L187 452L186 451z"/>
<path style="fill:#d37e92; stroke:none;" d="M149 452L150 453L149 452z"/>
<path style="fill:#b4415b; stroke:none;" d="M187 452L188 453L187 452M188 453L189 454L188 453M152 454L153 455L152 454M189 454L190 455L189 454M153 455L154 456L153 455z"/>
<path style="fill:#d37e92; stroke:none;" d="M191 455L192 456L191 455z"/>
<path style="fill:#b4415b; stroke:none;" d="M192 456L193 457L192 456M193 457L194 458L193 457M157 458L158 459L157 458M194 458L195 459L194 458z"/>
<path style="fill:#bd667b; stroke:none;" d="M158 459L159 460L158 459M196 459L197 460L196 459M197 460L198 461L197 460z"/>
<path style="fill:#b4415b; stroke:none;" d="M161 461L162 462L161 461M198 461L199 462L198 461z"/>
<path style="fill:#d37e92; stroke:none;" d="M199 461L200 462L199 461z"/>
<path style="fill:#bd667b; stroke:none;" d="M162 462L163 463L162 462z"/>
<path style="fill:#d37e92; stroke:none;" d="M200 462L201 463L200 462z"/>
<path style="fill:#b4415b; stroke:none;" d="M164 463L165 464L164 463z"/>
<path style="fill:#d37e92; stroke:none;" d="M202 463L203 464L202 463z"/>
<path style="fill:#b4415b; stroke:none;" d="M165 464L166 465L165 464M203 464L204 465L203 464M205 465L206 466L205 465z"/>
<path style="fill:#bd667b; stroke:none;" d="M206 465L207 466L206 465z"/>
<path style="fill:#b4415b; stroke:none;" d="M168 466L169 467L168 466M208 466L209 467L208 466z"/>
<path style="fill:#d37e92; stroke:none;" d="M169 467L170 468L169 467z"/>
<path style="fill:#b4415b; stroke:none;" d="M210 467L211 468L210 467M171 468L172 469L171 468z"/>
<path style="fill:#bd667b; stroke:none;" d="M212 468L213 469L212 468z"/>
<path style="fill:#d37e92; stroke:none;" d="M172 469L173 470L172 469z"/>
<path style="fill:#b4415b; stroke:none;" d="M213 469L214 470L213 469M174 470L175 471L174 470z"/>
<path style="fill:#bd667b; stroke:none;" d="M215 470L216 471L215 470z"/>
<path style="fill:#b4415b; stroke:none;" d="M176 471L177 472L176 471M216 471L217 472L216 471z"/>
<path style="fill:#bd667b; stroke:none;" d="M177 472L178 473L177 472z"/>
<path style="fill:#d37e92; stroke:none;" d="M218 472L219 473L218 472z"/>
<path style="fill:#b4415b; stroke:none;" d="M179 473L180 474L179 473M219 473L220 474L219 473M181 474L182 475L181 474z"/>
<path style="fill:#bd667b; stroke:none;" d="M182 475L183 476L182 475z"/>
<path style="fill:#b4415b; stroke:none;" d="M183 475L184 476L183 475z"/>
<path style="fill:#bd667b; stroke:none;" d="M184 476L185 477L184 476M223 476L224 477L223 476z"/>
<path style="fill:#b4415b; stroke:none;" d="M186 477L187 478L186 477M224 477L225 478L224 477M188 478L189 479L188 478z"/>
<path style="fill:#d37e92; stroke:none;" d="M226 478L227 479L226 478z"/>
<path style="fill:#b4415b; stroke:none;" d="M190 479L191 480L190 479M227 479L228 480L227 479z"/>
<path style="fill:#d37e92; stroke:none;" d="M191 480L192 481L191 480z"/>
<path style="fill:#b4415b; stroke:none;" d="M192 480L193 481L192 480z"/>
<path style="fill:#d37e92; stroke:none;" d="M229 480L230 481L229 480M193 481L194 482L193 481z"/>
<path style="fill:#b4415b; stroke:none;" d="M194 481L195 482L194 481M230 481L231 482L230 481z"/>
<path style="fill:#d37e92; stroke:none;" d="M195 482L196 483L195 482z"/>
<path style="fill:#b4415b; stroke:none;" d="M196 482L197 483L196 482z"/>
<path style="fill:#bd667b; stroke:none;" d="M232 482L233 483L232 482z"/>
<path style="fill:#b4415b; stroke:none;" d="M198 483L199 484L198 483z"/>
<path style="fill:#bd667b; stroke:none;" d="M234 483L235 484L234 483z"/>
<path style="fill:#b4415b; stroke:none;" d="M200.667 484.333L201.333 484.667L200.667 484.333z"/>
<path style="fill:#bd667b; stroke:none;" d="M236 484L237 485L236 484z"/>
<path style="fill:#d37e92; stroke:none;" d="M202 485L203 486L202 485z"/>
<path style="fill:#b4415b; stroke:none;" d="M203 485L204 486L203 485z"/>
<path style="fill:#bd667b; stroke:none;" d="M238 485L239 486L238 485z"/>
<path style="fill:#b4415b; stroke:none;" d="M205 486L206 487L205 486M240 486L241 487L240 486z"/>
<path style="fill:#bd667b; stroke:none;" d="M241 486L242 487L241 486M207 487L208 488L207 487z"/>
<path style="fill:#b4415b; stroke:none;" d="M243 487L244 488L243 487z"/>
<path style="fill:#d37e92; stroke:none;" d="M244 487L245 488L244 487z"/>
<path style="fill:#bd667b; stroke:none;" d="M209 488L210 489L209 488z"/>
<path style="fill:#b4415b; stroke:none;" d="M210 488L211 489L210 488M245 488L246 489L245 488z"/>
<path style="fill:#d37e92; stroke:none;" d="M246.667 488.333L247.333 488.667L246.667 488.333M212 489L213 490L212 489z"/>
<path style="fill:#b4415b; stroke:none;" d="M213 489L214 490L213 489z"/>
<path style="fill:#bd667b; stroke:none;" d="M249 489L250 490L249 489z"/>
<path style="fill:#d37e92; stroke:none;" d="M250.667 489.333L251.333 489.667L250.667 489.333z"/>
<path style="fill:#bd667b; stroke:none;" d="M215 490L216 491L215 490z"/>
<path style="fill:#b4415b; stroke:none;" d="M252 490L252 491L256 491L252 490z"/>
<path style="fill:#d37e92; stroke:none;" d="M218 491L219 492L218 491z"/>
<path style="fill:#b4415b; stroke:none;" d="M219 491L220 492L219 491M258 491L258 492L261 492L258 491z"/>
<path style="fill:#d37e92; stroke:none;" d="M261 491L262 492L261 491z"/>
<path style="fill:#bd667b; stroke:none;" d="M221 492L222 493L221 492z"/>
<path style="fill:#b4415b; stroke:none;" d="M222 492L223 493L222 492z"/>
<path style="fill:#bd667b; stroke:none;" d="M264 492L265 493L264 492z"/>
<path style="fill:#d37e92; stroke:none;" d="M265.667 492.333L266.333 492.667L265.667 492.333z"/>
<path style="fill:#bd667b; stroke:none;" d="M224.667 493.333L225.333 493.667L224.667 493.333z"/>
<path style="fill:#b4415b; stroke:none;" d="M226 493L227 494L226 493M267.667 493.333L268.333 493.667L267.667 493.333z"/>
<path style="fill:#d37e92; stroke:none;" d="M269.667 493.333L270.333 493.667L269.667 493.333M228 494L229 495L228 494z"/>
<path style="fill:#bd667b; stroke:none;" d="M229 494L230 495L229 494z"/>
<path style="fill:#b4415b; stroke:none;" d="M230 494L231 495L230 494M271 494L272 495L271 494z"/>
<path style="fill:#bd667b; stroke:none;" d="M272 494L273 495L272 494z"/>
<path style="fill:#d37e92; stroke:none;" d="M273 494L274 495L273 494M232 495L233 496L232 495z"/>
<path style="fill:#b4415b; stroke:none;" d="M233 495L234 496L233 495M274 495L275 496L274 495z"/>
<path style="fill:#d37e92; stroke:none;" d="M275 495L276 496L275 495M236 496L237 497L236 496z"/>
<path style="fill:#b4415b; stroke:none;" d="M237 496L237 497L240 497L237 496z"/>
<path style="fill:#bd667b; stroke:none;" d="M241 497L241 498L244 498L241 497z"/>
<path style="fill:#b4415b; stroke:none;" d="M244 497L245 498L244 497M277 497L276 499L277 497z"/>
<path style="fill:#d37e92; stroke:none;" d="M247.667 498.333L248.333 498.667L247.667 498.333z"/>
<path style="fill:#bd667b; stroke:none;" d="M249 498L250 499L249 498z"/>
<path style="fill:#b4415b; stroke:none;" d="M250 498L251 499L250 498z"/>
<path style="fill:#d37e92; stroke:none;" d="M277 498L278 499L277 498M255 499L256 500L255 499z"/>
<path style="fill:#bd667b; stroke:none;" d="M256 499L257 500L256 499z"/>
<path style="fill:#d37e92; stroke:none;" d="M257 499L258 500L257 499z"/>
<path style="fill:#b4415b; stroke:none;" d="M258 499L259 500L258 499M269.667 499.333L270.333 499.667L269.667 499.333z"/>
<path style="fill:#bd667b; stroke:none;" d="M271.667 499.333L272.333 499.667L271.667 499.333z"/>
<path style="fill:#d37e92; stroke:none;" d="M273 499L274 500L273 499z"/>
</svg>
